<svg xmlns="http://www.w3.org/2000/svg" xmlns:xlink="http://www.w3.org/1999/xlink" width="1675" zoomAndPan="magnify" viewBox="0 0 1256.25 931.499976" height="1242" preserveAspectRatio="xMidYMid meet" version="1.0"><defs><g/><clipPath id="40dcee25f3"><path d="M 513 417 L 528 417 L 528 679.871094 L 513 679.871094 Z M 513 417 " clip-rule="nonzero"/></clipPath><clipPath id="8e421223e5"><path d="M 469 417 L 484 417 L 484 679.871094 L 469 679.871094 Z M 469 417 " clip-rule="nonzero"/></clipPath><clipPath id="48c9b932cb"><path d="M 491 194.910156 L 506 194.910156 L 506 253 L 491 253 Z M 491 194.910156 " clip-rule="nonzero"/></clipPath><clipPath id="c8a98a07f5"><path d="M 750 194.910156 L 765 194.910156 L 765 253 L 750 253 Z M 750 194.910156 " clip-rule="nonzero"/></clipPath><clipPath id="528a1401ab"><path d="M 771 417 L 865 417 L 865 679.871094 L 771 679.871094 Z M 771 417 " clip-rule="nonzero"/></clipPath><clipPath id="d45607b745"><path d="M 727 417 L 742 417 L 742 679.871094 L 727 679.871094 Z M 727 417 " clip-rule="nonzero"/></clipPath><clipPath id="927c35ccd5"><path d="M 894 384 L 909 384 L 909 679.871094 L 894 679.871094 Z M 894 384 " clip-rule="nonzero"/></clipPath><clipPath id="e634cc42f7"><path d="M 390 417 L 484 417 L 484 679.871094 L 390 679.871094 Z M 390 417 " clip-rule="nonzero"/></clipPath><clipPath id="760c6e1c45"><path d="M 346 384 L 361 384 L 361 679.871094 L 346 679.871094 Z M 346 384 " clip-rule="nonzero"/></clipPath><clipPath id="ef6b8a8618"><path d="M 576.605469 194.910156 L 674 194.910156 L 674 338.824219 L 576.605469 338.824219 Z M 576.605469 194.910156 " clip-rule="nonzero"/></clipPath><clipPath id="0fe9fcb25e"><path d="M 295 736 L 627.492188 736 L 627.492188 819 L 295 819 Z M 295 736 " clip-rule="nonzero"/></clipPath><clipPath id="20ece58bde"><path d="M 627.625 656 L 978 656 L 978 819 L 627.625 819 Z M 627.625 656 " clip-rule="nonzero"/></clipPath><clipPath id="413a296771"><path d="M 14 48 L 350.894531 48 L 350.894531 131 L 14 131 Z M 14 48 " clip-rule="nonzero"/></clipPath><clipPath id="1ecff2ccaf"><path d="M 0.753906 80 L 333 80 L 333 162.660156 L 0.753906 162.660156 Z M 0.753906 80 " clip-rule="nonzero"/></clipPath><clipPath id="314ea3794a"><path d="M 270 0.0351562 L 342 0.0351562 L 342 94 L 270 94 Z M 270 0.0351562 " clip-rule="nonzero"/></clipPath><clipPath id="6132db37f2"><rect x="0" width="351" y="0" height="163"/></clipPath><clipPath id="f1d26d5252"><path d="M 927.445312 245.957031 L 1226 245.957031 L 1226 708 L 927.445312 708 Z M 927.445312 245.957031 " clip-rule="nonzero"/></clipPath><clipPath id="019a2adaaf"><rect x="0" width="299" y="0" height="463"/></clipPath><clipPath id="ad6dd4ef72"><rect x="0" width="1047" y="0" height="160"/></clipPath><clipPath id="967cd4f644"><rect x="0" width="448" y="0" height="88"/></clipPath></defs><g clip-path="url(#40dcee25f3)"><path fill="#004aad" d="M 520.449219 683.71875 C 516.554688 683.71875 513.398438 680.542969 513.398438 676.644531 L 513.398438 424.832031 C 513.398438 420.9375 516.554688 417.785156 520.449219 417.785156 C 524.34375 417.785156 527.5 420.9375 527.5 424.832031 L 527.5 676.644531 C 527.5 680.542969 524.34375 683.71875 520.449219 683.71875 " fill-opacity="1" fill-rule="nonzero"/></g><g clip-path="url(#8e421223e5)"><path fill="#004aad" d="M 476.503906 683.71875 C 472.609375 683.71875 469.457031 680.542969 469.457031 676.644531 L 469.457031 424.832031 C 469.457031 420.9375 472.609375 417.785156 476.503906 417.785156 C 480.402344 417.785156 483.554688 420.9375 483.554688 424.832031 L 483.554688 676.644531 C 483.554688 680.542969 480.402344 683.71875 476.503906 683.71875 " fill-opacity="1" fill-rule="nonzero"/></g><path fill="#004aad" d="M 535.984375 400.625 L 458.835938 400.625 C 454.9375 400.625 451.785156 397.46875 451.785156 393.574219 C 451.785156 389.65625 454.9375 386.5 458.835938 386.5 L 535.984375 386.5 C 539.882812 386.5 543.035156 389.65625 543.035156 393.574219 C 543.035156 397.46875 539.882812 400.625 535.984375 400.625 " fill-opacity="1" fill-rule="nonzero"/><path fill="#004aad" d="M 476.503906 370.871094 C 472.609375 370.871094 469.457031 367.71875 469.457031 363.824219 L 469.457031 328.457031 C 469.457031 324.5625 472.609375 321.410156 476.503906 321.410156 C 480.402344 321.410156 483.554688 324.5625 483.554688 328.457031 L 483.554688 363.824219 C 483.554688 367.71875 480.402344 370.871094 476.503906 370.871094 " fill-opacity="1" fill-rule="nonzero"/><path fill="#004aad" d="M 520.449219 370.871094 C 516.554688 370.871094 513.398438 367.71875 513.398438 363.824219 L 513.398438 328.457031 C 513.398438 324.5625 516.554688 321.410156 520.449219 321.410156 C 524.34375 321.410156 527.5 324.5625 527.5 328.457031 L 527.5 363.824219 C 527.5 367.71875 524.34375 370.871094 520.449219 370.871094 " fill-opacity="1" fill-rule="nonzero"/><path fill="#004aad" d="M 521.515625 294.207031 C 519.035156 294.207031 516.644531 292.910156 515.347656 290.589844 L 498.464844 260.28125 L 481.605469 290.589844 C 479.707031 294 475.414062 295.207031 472.007812 293.328125 C 468.597656 291.425781 467.367188 287.136719 469.269531 283.726562 L 492.320312 242.332031 C 493.550781 240.109375 495.914062 238.714844 498.464844 238.714844 C 501.039062 238.714844 503.382812 240.109375 504.632812 242.332031 L 527.683594 283.726562 C 529.5625 287.136719 528.355469 291.425781 524.949219 293.328125 C 523.859375 293.929688 522.675781 294.207031 521.515625 294.207031 " fill-opacity="1" fill-rule="nonzero"/><g clip-path="url(#48c9b932cb)"><path fill="#004aad" d="M 498.464844 252.816406 C 494.59375 252.816406 491.414062 249.660156 491.414062 245.765625 L 491.414062 201.960938 C 491.414062 198.066406 494.59375 194.910156 498.464844 194.910156 C 502.359375 194.910156 505.539062 198.066406 505.539062 201.960938 L 505.539062 245.765625 C 505.539062 249.660156 502.359375 252.816406 498.464844 252.816406 " fill-opacity="1" fill-rule="nonzero"/></g><path fill="#004aad" d="M 780.308594 294.207031 C 777.828125 294.207031 775.414062 292.910156 774.140625 290.589844 L 757.257812 260.257812 L 740.375 290.589844 C 738.472656 294 734.183594 295.207031 730.777344 293.328125 C 727.390625 291.425781 726.160156 287.136719 728.0625 283.726562 L 751.089844 242.332031 C 752.339844 240.109375 754.707031 238.714844 757.257812 238.714844 C 759.808594 238.714844 762.175781 240.109375 763.425781 242.332031 L 786.453125 283.726562 C 788.355469 287.136719 787.125 291.425781 783.71875 293.328125 C 782.648438 293.929688 781.46875 294.207031 780.308594 294.207031 " fill-opacity="1" fill-rule="nonzero"/><g clip-path="url(#c8a98a07f5)"><path fill="#004aad" d="M 757.257812 252.816406 C 753.363281 252.816406 750.207031 249.660156 750.207031 245.765625 L 750.207031 201.960938 C 750.207031 198.066406 753.363281 194.910156 757.257812 194.910156 C 761.152344 194.910156 764.308594 198.066406 764.308594 201.960938 L 764.308594 245.765625 C 764.308594 249.660156 761.152344 252.816406 757.257812 252.816406 " fill-opacity="1" fill-rule="nonzero"/></g><g clip-path="url(#528a1401ab)"><path fill="#004aad" d="M 857.433594 683.71875 C 853.539062 683.71875 850.386719 680.542969 850.386719 676.644531 L 850.386719 431.882812 L 785.199219 431.882812 L 785.199219 676.644531 C 785.199219 680.542969 782.046875 683.71875 778.152344 683.71875 C 774.253906 683.71875 771.101562 680.542969 771.101562 676.644531 L 771.101562 424.832031 C 771.101562 420.9375 774.253906 417.785156 778.152344 417.785156 L 857.433594 417.785156 C 861.332031 417.785156 864.507812 420.9375 864.507812 424.832031 L 864.507812 676.644531 C 864.507812 680.542969 861.332031 683.71875 857.433594 683.71875 " fill-opacity="1" fill-rule="nonzero"/></g><g clip-path="url(#d45607b745)"><path fill="#004aad" d="M 734.207031 683.71875 C 730.3125 683.71875 727.15625 680.542969 727.15625 676.644531 L 727.15625 424.832031 C 727.15625 420.9375 730.3125 417.785156 734.207031 417.785156 C 738.101562 417.785156 741.28125 420.9375 741.28125 424.832031 L 741.28125 676.644531 C 741.28125 680.542969 738.101562 683.71875 734.207031 683.71875 " fill-opacity="1" fill-rule="nonzero"/></g><path fill="#004aad" d="M 795.820312 400.625 L 718.671875 400.625 C 714.773438 400.625 711.621094 397.46875 711.621094 393.574219 C 711.621094 389.65625 714.773438 386.5 718.671875 386.5 L 795.820312 386.5 C 799.71875 386.5 802.894531 389.65625 802.894531 393.574219 C 802.894531 397.46875 799.71875 400.625 795.820312 400.625 " fill-opacity="1" fill-rule="nonzero"/><path fill="#004aad" d="M 778.152344 370.871094 C 774.253906 370.871094 771.101562 367.71875 771.101562 363.824219 L 771.101562 328.457031 C 771.101562 324.5625 774.253906 321.410156 778.152344 321.410156 C 782.046875 321.410156 785.199219 324.5625 785.199219 328.457031 L 785.199219 363.824219 C 785.199219 367.71875 782.046875 370.871094 778.152344 370.871094 " fill-opacity="1" fill-rule="nonzero"/><path fill="#004aad" d="M 734.207031 370.871094 C 730.3125 370.871094 727.15625 367.71875 727.15625 363.824219 L 727.15625 328.457031 C 727.15625 324.5625 730.3125 321.410156 734.207031 321.410156 C 738.101562 321.410156 741.28125 324.5625 741.28125 328.457031 L 741.28125 363.824219 C 741.28125 367.71875 738.101562 370.871094 734.207031 370.871094 " fill-opacity="1" fill-rule="nonzero"/><path fill="#004aad" d="M 655.039062 373.933594 C 652.582031 373.933594 650.191406 372.632812 648.894531 370.339844 C 646.460938 366.046875 641.265625 362.617188 635.746094 358.976562 C 632.476562 356.820312 629.160156 354.617188 626.121094 352.066406 C 623.085938 354.617188 619.769531 356.820312 616.5 358.976562 C 610.980469 362.617188 605.785156 366.046875 603.351562 370.339844 C 601.425781 373.746094 597.113281 374.929688 593.726562 373.003906 C 590.339844 371.082031 589.160156 366.789062 591.082031 363.40625 C 595.1875 356.148438 602.074219 351.601562 608.730469 347.195312 C 613.4375 344.089844 617.867188 341.167969 620.582031 337.710938 C 623.246094 334.324219 628.996094 334.324219 631.664062 337.710938 C 634.378906 341.167969 638.808594 344.089844 643.515625 347.195312 C 650.167969 351.601562 657.082031 356.148438 661.183594 363.40625 C 663.109375 366.789062 661.902344 371.082031 658.519531 373.003906 C 657.429688 373.632812 656.222656 373.933594 655.039062 373.933594 " fill-opacity="1" fill-rule="nonzero"/><path fill="#004aad" d="M 676.351562 660.945312 C 672.453125 660.945312 669.300781 657.769531 669.300781 653.898438 L 669.300781 525.011719 C 669.300781 501.867188 650.472656 483.039062 627.328125 483.039062 C 604.183594 483.039062 585.355469 501.867188 585.355469 525.011719 L 585.355469 653.898438 C 585.355469 657.769531 582.203125 660.945312 578.304688 660.945312 C 574.410156 660.945312 571.257812 657.769531 571.257812 653.898438 L 571.257812 525.011719 C 571.257812 494.101562 596.417969 468.9375 627.328125 468.9375 C 658.238281 468.9375 683.398438 494.101562 683.398438 525.011719 L 683.398438 653.898438 C 683.398438 657.769531 680.246094 660.945312 676.351562 660.945312 " fill-opacity="1" fill-rule="nonzero"/><path fill="#52b9d0" d="M 606.527344 653.898438 L 606.527344 525.011719 C 606.527344 513.554688 615.851562 504.210938 627.328125 504.210938 C 638.808594 504.210938 648.128906 513.554688 648.128906 525.011719 L 648.128906 653.898438 L 606.527344 653.898438 " fill-opacity="1" fill-rule="nonzero"/><path fill="#004aad" d="M 576.707031 452.289062 C 572.808594 452.289062 569.632812 449.113281 569.632812 445.214844 L 569.632812 426.410156 C 569.632812 422.515625 572.808594 419.359375 576.707031 419.359375 C 580.601562 419.359375 583.753906 422.515625 583.753906 426.410156 L 583.753906 445.214844 C 583.753906 449.113281 580.601562 452.289062 576.707031 452.289062 " fill-opacity="1" fill-rule="nonzero"/><path fill="#004aad" d="M 610.445312 452.289062 C 606.550781 452.289062 603.398438 449.113281 603.398438 445.214844 L 603.398438 426.410156 C 603.398438 422.515625 606.550781 419.359375 610.445312 419.359375 C 614.34375 419.359375 617.496094 422.515625 617.496094 426.410156 L 617.496094 445.214844 C 617.496094 449.113281 614.34375 452.289062 610.445312 452.289062 " fill-opacity="1" fill-rule="nonzero"/><path fill="#004aad" d="M 644.210938 452.289062 C 640.3125 452.289062 637.160156 449.113281 637.160156 445.214844 L 637.160156 426.410156 C 637.160156 422.515625 640.3125 419.359375 644.210938 419.359375 C 648.105469 419.359375 651.257812 422.515625 651.257812 426.410156 L 651.257812 445.214844 C 651.257812 449.113281 648.105469 452.289062 644.210938 452.289062 " fill-opacity="1" fill-rule="nonzero"/><path fill="#004aad" d="M 677.949219 452.289062 C 674.054688 452.289062 670.902344 449.113281 670.902344 445.214844 L 670.902344 426.410156 C 670.902344 422.515625 674.054688 419.359375 677.949219 419.359375 C 681.847656 419.359375 685.023438 422.515625 685.023438 426.410156 L 685.023438 445.214844 C 685.023438 449.113281 681.847656 452.289062 677.949219 452.289062 " fill-opacity="1" fill-rule="nonzero"/><path fill="#004aad" d="M 718.671875 400.460938 L 535.984375 400.460938 C 532.089844 400.460938 528.914062 397.308594 528.914062 393.410156 C 528.914062 389.515625 532.089844 386.363281 535.984375 386.363281 L 718.671875 386.363281 C 722.566406 386.363281 725.742188 389.515625 725.742188 393.410156 C 725.742188 397.308594 722.566406 400.460938 718.671875 400.460938 " fill-opacity="1" fill-rule="nonzero"/><path fill="#004aad" d="M 535.984375 325.28125 L 458.835938 325.28125 C 454.9375 325.28125 451.785156 322.128906 451.785156 318.230469 C 451.785156 314.335938 454.9375 311.183594 458.835938 311.183594 L 535.984375 311.183594 C 539.882812 311.183594 543.035156 314.335938 543.035156 318.230469 C 543.035156 322.128906 539.882812 325.28125 535.984375 325.28125 " fill-opacity="1" fill-rule="nonzero"/><path fill="#004aad" d="M 795.820312 325.28125 L 718.671875 325.28125 C 714.773438 325.28125 711.621094 322.128906 711.621094 318.230469 C 711.621094 314.335938 714.773438 311.183594 718.671875 311.183594 L 795.820312 311.183594 C 799.71875 311.183594 802.894531 314.335938 802.894531 318.230469 C 802.894531 322.128906 799.71875 325.28125 795.820312 325.28125 " fill-opacity="1" fill-rule="nonzero"/><path fill="#004aad" d="M 903.605469 357.46875 C 901.125 357.46875 898.734375 356.148438 897.4375 353.828125 L 880.554688 323.519531 L 863.695312 353.828125 C 861.773438 357.238281 857.503906 358.464844 854.097656 356.5625 C 850.6875 354.664062 849.457031 350.371094 851.359375 346.964844 L 874.386719 305.59375 C 875.640625 303.34375 878.003906 301.953125 880.554688 301.953125 C 883.128906 301.953125 885.472656 303.34375 886.722656 305.59375 L 909.773438 346.964844 C 911.652344 350.371094 910.421875 354.664062 907.039062 356.5625 C 905.949219 357.167969 904.765625 357.46875 903.605469 357.46875 " fill-opacity="1" fill-rule="nonzero"/><path fill="#004aad" d="M 880.554688 316.074219 C 876.660156 316.074219 873.503906 312.921875 873.503906 309.003906 L 873.503906 265.222656 C 873.503906 261.324219 876.660156 258.171875 880.554688 258.171875 C 884.449219 258.171875 887.605469 261.324219 887.605469 265.222656 L 887.605469 309.003906 C 887.605469 312.921875 884.449219 316.074219 880.554688 316.074219 " fill-opacity="1" fill-rule="nonzero"/><g clip-path="url(#927c35ccd5)"><path fill="#004aad" d="M 901.449219 683.71875 C 897.554688 683.71875 894.398438 680.542969 894.398438 676.644531 L 894.398438 391.71875 C 894.398438 387.824219 897.554688 384.667969 901.449219 384.667969 C 905.34375 384.667969 908.5 387.824219 908.5 391.71875 L 908.5 676.644531 C 908.5 680.542969 905.34375 683.71875 901.449219 683.71875 " fill-opacity="1" fill-rule="nonzero"/></g><path fill="#004aad" d="M 857.527344 434.132812 C 853.632812 434.132812 850.480469 430.980469 850.480469 427.082031 L 850.480469 391.71875 C 850.480469 387.824219 853.632812 384.667969 857.527344 384.667969 C 861.425781 384.667969 864.578125 387.824219 864.578125 391.71875 L 864.578125 427.082031 C 864.578125 430.980469 861.425781 434.132812 857.527344 434.132812 " fill-opacity="1" fill-rule="nonzero"/><path fill="#004aad" d="M 919.140625 388.519531 L 841.992188 388.519531 C 838.09375 388.519531 834.941406 385.363281 834.941406 381.46875 C 834.941406 377.574219 838.09375 374.417969 841.992188 374.417969 L 919.140625 374.417969 C 923.039062 374.417969 926.191406 377.574219 926.191406 381.46875 C 926.191406 385.363281 923.039062 388.519531 919.140625 388.519531 " fill-opacity="1" fill-rule="nonzero"/><g clip-path="url(#e634cc42f7)"><path fill="#004aad" d="M 397.222656 683.71875 C 393.324219 683.71875 390.171875 680.542969 390.171875 676.644531 L 390.171875 424.832031 C 390.171875 420.9375 393.324219 417.785156 397.222656 417.785156 L 476.503906 417.785156 C 480.402344 417.785156 483.554688 420.9375 483.554688 424.832031 C 483.554688 428.730469 480.402344 431.882812 476.503906 431.882812 L 404.269531 431.882812 L 404.269531 676.644531 C 404.269531 680.542969 401.117188 683.71875 397.222656 683.71875 " fill-opacity="1" fill-rule="nonzero"/></g><path fill="#004aad" d="M 397.152344 357.46875 C 394.671875 357.46875 392.257812 356.148438 390.984375 353.828125 L 374.101562 323.519531 L 357.21875 353.828125 C 355.316406 357.238281 351.027344 358.464844 347.640625 356.5625 C 344.234375 354.664062 343.003906 350.371094 344.90625 346.964844 L 367.933594 305.59375 C 369.183594 303.34375 371.550781 301.953125 374.101562 301.953125 C 376.652344 301.953125 379.015625 303.34375 380.269531 305.59375 L 403.296875 346.964844 C 405.199219 350.371094 403.96875 354.664062 400.558594 356.5625 C 399.492188 357.167969 398.3125 357.46875 397.152344 357.46875 " fill-opacity="1" fill-rule="nonzero"/><path fill="#004aad" d="M 374.101562 316.074219 C 370.207031 316.074219 367.050781 312.921875 367.050781 309.003906 L 367.050781 265.222656 C 367.050781 261.324219 370.207031 258.171875 374.101562 258.171875 C 377.996094 258.171875 381.152344 261.324219 381.152344 265.222656 L 381.152344 309.003906 C 381.152344 312.921875 377.996094 316.074219 374.101562 316.074219 " fill-opacity="1" fill-rule="nonzero"/><g clip-path="url(#760c6e1c45)"><path fill="#004aad" d="M 353.207031 683.71875 C 349.3125 683.71875 346.160156 680.542969 346.160156 676.644531 L 346.160156 391.71875 C 346.160156 387.824219 349.3125 384.667969 353.207031 384.667969 C 357.105469 384.667969 360.257812 387.824219 360.257812 391.71875 L 360.257812 676.644531 C 360.257812 680.542969 357.105469 683.71875 353.207031 683.71875 " fill-opacity="1" fill-rule="nonzero"/></g><path fill="#004aad" d="M 397.128906 434.132812 C 393.253906 434.132812 390.078125 430.980469 390.078125 427.082031 L 390.078125 391.71875 C 390.078125 387.824219 393.253906 384.667969 397.128906 384.667969 C 401.023438 384.667969 404.199219 387.824219 404.199219 391.71875 L 404.199219 427.082031 C 404.199219 430.980469 401.023438 434.132812 397.128906 434.132812 " fill-opacity="1" fill-rule="nonzero"/><path fill="#004aad" d="M 412.664062 388.519531 L 335.515625 388.519531 C 331.617188 388.519531 328.464844 385.363281 328.464844 381.46875 C 328.464844 377.574219 331.617188 374.417969 335.515625 374.417969 L 412.664062 374.417969 C 416.5625 374.417969 419.738281 377.574219 419.738281 381.46875 C 419.738281 385.363281 416.5625 388.519531 412.664062 388.519531 " fill-opacity="1" fill-rule="nonzero"/><g clip-path="url(#ef6b8a8618)"><path fill="#52b9d0" d="M 624.121094 338.851562 C 622.878906 338.335938 622.316406 336.542969 622.988281 335.226562 L 623.300781 334.609375 L 622.558594 334.324219 C 621.429688 333.894531 620.046875 332.53125 619.394531 331.203125 C 618.882812 330.164062 618.835938 329.9375 618.835938 328.449219 C 618.835938 327.027344 618.894531 326.707031 619.296875 325.886719 C 619.550781 325.371094 619.992188 324.695312 620.277344 324.386719 C 620.5625 324.074219 620.796875 323.785156 620.796875 323.746094 C 620.796875 323.570312 619.425781 323.691406 618.898438 323.914062 C 617.664062 324.433594 617.046875 325.4375 617.046875 326.914062 C 617.046875 327.628906 616.96875 327.851562 616.59375 328.195312 C 615.425781 329.277344 613.789062 328.117188 613.742188 326.175781 C 613.695312 324.179688 614.789062 322.410156 616.570312 321.605469 L 617.472656 321.199219 L 633.324219 321.199219 L 634.179688 321.652344 C 635.902344 322.570312 636.871094 324.085938 636.890625 325.886719 C 636.90625 327.140625 636.574219 327.871094 635.789062 328.335938 C 635.15625 328.710938 634.570312 328.6875 634.03125 328.261719 C 633.632812 327.949219 633.582031 327.789062 633.582031 326.855469 C 633.582031 325.597656 633.214844 324.769531 632.433594 324.25 C 631.910156 323.898438 630.730469 323.566406 630.574219 323.726562 C 630.53125 323.765625 630.761719 324.289062 631.085938 324.886719 C 633.011719 328.4375 631.835938 332.28125 628.246094 334.160156 L 627.316406 334.644531 L 627.636719 335.167969 C 628.359375 336.355469 627.847656 338.082031 626.589844 338.714844 C 625.972656 339.023438 624.710938 339.09375 624.121094 338.851562 Z M 626.609375 329.421875 C 628.316406 328.28125 628.050781 325.851562 626.121094 324.996094 C 623.289062 323.746094 621.253906 327.851562 623.90625 329.46875 C 624.679688 329.9375 625.863281 329.917969 626.609375 329.421875 Z M 622.015625 324.652344 C 622.222656 324.398438 622.347656 324.144531 622.296875 324.09375 C 622.125 323.921875 621.09375 324.921875 620.859375 325.488281 C 620.449219 326.46875 620.597656 326.679688 621.132812 325.878906 C 621.410156 325.460938 621.808594 324.910156 622.015625 324.652344 Z M 625.082031 319.410156 C 617.464844 319.324219 617.355469 319.320312 617.710938 319 C 618.144531 318.605469 618.1875 317.675781 617.785156 317.339844 C 617.632812 317.214844 617.265625 317.03125 616.976562 316.9375 C 616.4375 316.761719 616.164062 316.128906 616.484375 315.808594 C 616.671875 315.621094 625.875 315.519531 630.683594 315.648438 L 634.179688 315.742188 L 634.230469 316.175781 C 634.273438 316.550781 634.15625 316.667969 633.375 317.027344 C 632.628906 317.375 632.464844 317.53125 632.417969 317.941406 C 632.382812 318.246094 632.496094 318.617188 632.714844 318.914062 C 633.085938 319.417969 633.15625 319.605469 632.941406 319.539062 C 632.871094 319.515625 629.335938 319.460938 625.082031 319.410156 Z M 624.632812 317.03125 C 625.136719 316.925781 624.804688 316.894531 623.351562 316.898438 C 621.761719 316.90625 621.585938 316.929688 622.414062 317.023438 C 623.894531 317.1875 623.886719 317.1875 624.632812 317.03125 Z M 617.046875 313.777344 C 617.046875 313.679688 617.328125 313.355469 617.671875 313.054688 C 618.71875 312.132812 618.9375 311.390625 619.046875 308.398438 L 619.140625 305.769531 L 631.496094 305.769531 L 631.566406 308.457031 C 631.652344 311.535156 631.898438 312.371094 632.964844 313.183594 C 633.304688 313.441406 633.582031 313.722656 633.582031 313.804688 C 633.582031 313.886719 629.96875 313.953125 625.3125 313.953125 C 619.75 313.953125 617.046875 313.894531 617.046875 313.777344 Z M 619.207031 302.835938 C 619.09375 301.476562 618.820312 300.972656 617.882812 300.367188 C 616.878906 299.722656 616.554688 299.390625 616.5 298.953125 L 616.449219 298.527344 L 625.269531 298.480469 L 634.09375 298.4375 L 634.09375 298.789062 C 634.09375 299.386719 633.789062 299.761719 632.929688 300.230469 C 631.878906 300.800781 631.570312 301.34375 631.429688 302.851562 L 631.316406 304.066406 L 619.3125 304.066406 Z M 626.835938 299.996094 C 626.953125 299.804688 624.476562 299.660156 622.972656 299.765625 C 622.34375 299.8125 621.867188 299.914062 621.917969 299.996094 C 622.039062 300.191406 626.714844 300.191406 626.835938 299.996094 Z M 616.371094 296.316406 C 615.851562 295.765625 615.816406 294.710938 616.289062 294.058594 C 616.574219 293.667969 617.71875 292.820312 619.476562 291.707031 C 619.714844 291.554688 619.707031 291.445312 619.394531 290.640625 L 619.042969 289.742188 L 618.511719 290.144531 C 616.726562 291.507812 613.78125 292.925781 611.589844 293.484375 C 609.6875 293.964844 606.628906 294.125 604.566406 293.84375 C 602.496094 293.566406 599.933594 292.6875 598.3125 291.703125 C 596.851562 290.820312 596.15625 290.289062 596.285156 290.164062 C 596.332031 290.117188 596.976562 290.269531 597.714844 290.5 C 601.28125 291.625 604.671875 292.074219 607.4375 291.789062 C 609.003906 291.625 610.351562 291.382812 610.5 291.234375 C 610.539062 291.195312 609.632812 291.117188 608.480469 291.066406 C 597.605469 290.574219 588.691406 283.402344 585.917969 272.914062 C 585.582031 271.640625 585.457031 270.667969 585.386719 268.777344 C 585.203125 263.890625 586.085938 260.230469 589.257812 252.75 C 590.496094 249.828125 591.429688 247.351562 591.820312 245.933594 C 593.53125 239.765625 592.921875 233.191406 590.148438 227.867188 C 588.570312 224.839844 585.9375 221.691406 583.398438 219.792969 C 581.777344 218.582031 579.023438 216.914062 577.703125 216.34375 C 577.113281 216.089844 576.660156 215.855469 576.6875 215.824219 C 576.71875 215.796875 577.671875 215.957031 578.808594 216.1875 C 586.375 217.722656 594.085938 222.289062 598.292969 227.71875 C 601.695312 232.109375 603.238281 236.601562 603.234375 242.09375 C 603.234375 246.457031 602.078125 250.21875 599.066406 255.652344 C 597.078125 259.242188 596.757812 259.878906 596.171875 261.398438 C 595.132812 264.082031 594.792969 266.484375 595.066406 269.148438 C 595.421875 272.621094 596.71875 275.445312 599.140625 278.035156 C 600.609375 279.605469 601.996094 280.617188 604.003906 281.578125 C 606.105469 282.585938 607.832031 283.070312 609.984375 283.253906 C 614.464844 283.628906 618.253906 282.367188 619.84375 279.960938 C 620.351562 279.195312 620.445312 277.835938 620.050781 276.910156 C 619.484375 275.585938 617.898438 274.15625 615.851562 273.125 C 614.46875 272.429688 612.609375 271.847656 611.769531 271.847656 C 611.175781 271.847656 611.117188 271.800781 610.902344 271.152344 C 610.261719 269.203125 607.1875 268.074219 603.238281 268.339844 L 601.617188 268.449219 L 602.382812 267.996094 C 605.28125 266.296875 609.730469 265.328125 614.742188 265.300781 C 617.921875 265.285156 618.992188 265.425781 620.765625 266.085938 C 623.347656 267.050781 624.78125 269.875 625.167969 274.757812 L 625.292969 276.363281 L 625.496094 274.402344 C 625.847656 270.96875 626.539062 268.894531 627.792969 267.523438 C 629.324219 265.847656 631.339844 265.308594 636.054688 265.308594 C 639.28125 265.3125 641.785156 265.640625 644.359375 266.402344 C 645.71875 266.804688 647.699219 267.628906 648.464844 268.113281 L 649.007812 268.457031 L 647.390625 268.347656 C 645.53125 268.21875 643.339844 268.46875 642.03125 268.957031 C 641.03125 269.332031 640.042969 270.269531 639.65625 271.207031 C 639.429688 271.765625 639.324219 271.847656 638.824219 271.847656 C 636.386719 271.847656 632.136719 274.234375 630.902344 276.300781 C 630.140625 277.578125 630.042969 278.386719 630.515625 279.484375 C 631.230469 281.148438 633.214844 282.476562 635.8125 283.035156 C 637.554688 283.40625 640.949219 283.402344 642.691406 283.023438 C 647.5625 281.964844 651.75 278.796875 653.984375 274.484375 C 655.3125 271.917969 655.8125 269.226562 655.550781 266.085938 C 655.304688 263.144531 654.628906 261.25 652.34375 257.097656 C 649.476562 251.890625 648.675781 250.074219 647.941406 247.136719 C 647.539062 245.527344 647.492188 245.003906 647.484375 242.183594 C 647.476562 238.921875 647.648438 237.445312 648.28125 235.363281 C 648.988281 233.035156 650.332031 230.445312 651.996094 228.203125 C 652.898438 226.984375 655.625 224.238281 657.132812 223.023438 C 660.851562 220.027344 666.917969 217.171875 671.492188 216.265625 C 672.441406 216.078125 673.410156 215.882812 673.644531 215.835938 C 673.878906 215.785156 673.246094 216.160156 672.242188 216.667969 C 669.261719 218.175781 667.132812 219.699219 664.941406 221.890625 C 662.820312 224.011719 661.460938 225.886719 660.253906 228.351562 C 657.730469 233.507812 657.148438 239.71875 658.660156 245.417969 C 659.265625 247.710938 659.726562 248.949219 661.628906 253.433594 C 664.484375 260.171875 665.199219 263.039062 665.199219 267.753906 C 665.199219 270.019531 665.125 271.085938 664.882812 272.1875 C 663.320312 279.359375 658.496094 285.480469 651.902344 288.644531 C 649.867188 289.621094 646.632812 290.554688 644.152344 290.878906 C 643.074219 291.019531 641.808594 291.191406 641.339844 291.257812 L 640.484375 291.378906 L 641.8125 291.585938 C 643.628906 291.867188 647.042969 291.84375 648.800781 291.539062 C 649.601562 291.398438 651.152344 291.011719 652.253906 290.679688 C 653.351562 290.34375 654.335938 290.101562 654.441406 290.136719 C 654.746094 290.238281 653.046875 291.386719 651.339844 292.226562 C 650.464844 292.660156 649.007812 293.207031 648.101562 293.449219 C 646.675781 293.824219 646.070312 293.886719 643.640625 293.902344 C 640.5 293.925781 639.15625 293.703125 636.84375 292.769531 C 635.539062 292.242188 633.109375 290.894531 632.113281 290.140625 L 631.585938 289.742188 L 631.25 290.648438 L 630.917969 291.554688 L 632 292.195312 C 633.328125 292.980469 634.199219 293.730469 634.535156 294.378906 C 634.875 295.035156 634.691406 295.960938 634.136719 296.398438 C 633.71875 296.722656 633.421875 296.734375 625.234375 296.734375 L 616.761719 296.734375 Z M 626.015625 291.59375 C 627.75 290.289062 628.347656 289.316406 628.367188 287.757812 C 628.382812 286.773438 628.300781 286.550781 627.050781 284.09375 C 626.121094 282.265625 625.660156 281.152344 625.523438 280.398438 L 625.332031 279.316406 L 624.933594 280.820312 C 624.699219 281.699219 624.167969 283 623.660156 283.949219 C 622.320312 286.429688 622.324219 286.429688 622.21875 287.324219 C 622.023438 288.953125 622.949219 290.621094 624.59375 291.625 C 625.285156 292.046875 625.414062 292.046875 626.015625 291.59375 Z M 609.957031 284.546875 C 606.910156 284.070312 603.011719 282.582031 600.980469 281.125 C 599.828125 280.296875 600.109375 280.6875 601.355469 281.644531 C 603.929688 283.625 607.089844 284.769531 609.96875 284.765625 L 611.335938 284.761719 Z M 644.195312 284.304688 C 644.832031 284.121094 645.765625 283.78125 646.269531 283.550781 C 647.167969 283.140625 649.265625 281.800781 649.265625 281.640625 C 649.265625 281.59375 648.671875 281.859375 647.945312 282.222656 C 646.402344 283 644.179688 283.808594 642.019531 284.390625 L 640.484375 284.800781 L 641.765625 284.71875 C 642.46875 284.675781 643.5625 284.488281 644.195312 284.304688 Z M 651.0625 231.601562 C 651.304688 231.121094 651.425781 230.773438 651.332031 230.832031 C 651.101562 230.976562 650.183594 232.613281 650.039062 233.148438 C 649.9375 233.511719 649.972656 233.492188 650.269531 233.023438 C 650.460938 232.71875 650.820312 232.078125 651.0625 231.601562 Z M 607.9375 279.074219 C 607.75 278.304688 607.042969 277.339844 606.433594 277.019531 C 606.128906 276.859375 605.417969 276.597656 604.855469 276.441406 L 603.832031 276.15625 L 604.429688 276.027344 C 605.9375 275.699219 606.824219 275.234375 607.253906 274.554688 C 607.488281 274.183594 607.726562 273.652344 607.78125 273.371094 C 607.933594 272.601562 608.089844 272.636719 608.34375 273.503906 C 608.675781 274.625 609.605469 275.496094 610.757812 275.765625 C 611.808594 276.011719 612.375 276.265625 611.894531 276.273438 C 611.367188 276.28125 609.71875 276.976562 609.210938 277.40625 C 608.933594 277.636719 608.5625 278.21875 608.386719 278.699219 C 608.066406 279.554688 608.058594 279.5625 607.9375 279.074219 Z M 642.105469 279.042969 C 642.105469 278.632812 641.226562 277.402344 640.675781 277.042969 C 640.449219 276.894531 639.777344 276.636719 639.183594 276.46875 L 638.105469 276.164062 L 639.378906 275.777344 C 640.921875 275.308594 641.59375 274.679688 641.96875 273.351562 L 642.222656 272.441406 L 642.507812 273.410156 C 642.9375 274.882812 643.824219 275.59375 645.769531 276.027344 C 646.265625 276.136719 646.25 276.152344 645.34375 276.4375 C 644.828125 276.597656 644.160156 276.859375 643.859375 277.019531 C 643.261719 277.328125 642.445312 278.394531 642.445312 278.863281 C 642.445312 279.023438 642.371094 279.203125 642.277344 279.261719 C 642.183594 279.320312 642.105469 279.21875 642.105469 279.042969 Z M 608.472656 261.496094 C 610.484375 259.578125 611.371094 258.507812 612.53125 256.585938 C 614.390625 253.515625 614.839844 251.515625 616.695312 238.007812 C 617.070312 235.285156 617.496094 232.101562 617.644531 230.929688 C 619.191406 218.738281 622.113281 204.652344 624.835938 196.257812 L 625.273438 194.910156 L 625.503906 195.460938 C 626.167969 197.042969 628.378906 205.117188 629.402344 209.699219 C 631.03125 216.996094 632.039062 223.191406 633.921875 237.496094 C 635.390625 248.640625 635.851562 251.390625 636.621094 253.605469 C 637.714844 256.765625 639.746094 259.492188 643.128906 262.351562 L 643.894531 263 L 643.296875 262.910156 C 641.636719 262.667969 636.96875 262.621094 633.105469 262.808594 C 628.320312 263.039062 627.976562 262.992188 627.507812 262.082031 C 627.3125 261.710938 627.203125 260.664062 627.09375 258.144531 C 626.804688 251.621094 626.429688 241.222656 626.253906 235.023438 C 625.738281 216.917969 625.53125 210.386719 625.429688 208.769531 C 625.320312 207.109375 625.296875 207.335938 625.097656 211.835938 C 624.976562 214.511719 624.804688 219.765625 624.71875 223.515625 C 624.464844 234.203125 624.191406 242.59375 623.777344 252.582031 C 623.457031 260.339844 623.363281 261.601562 623.082031 262.15625 C 622.671875 262.953125 622.105469 263.019531 617.527344 262.8125 C 613.796875 262.644531 609.089844 262.6875 607.5 262.910156 C 606.914062 262.992188 606.9375 262.957031 608.472656 261.496094 Z M 641.46875 230.234375 C 641.09375 228.652344 640.074219 227.753906 638.269531 227.421875 L 637.585938 227.296875 L 638.695312 226.984375 C 639.304688 226.8125 639.996094 226.53125 640.230469 226.355469 C 640.816406 225.921875 641.390625 224.859375 641.527344 223.953125 L 641.640625 223.203125 L 642.019531 224.246094 C 642.226562 224.824219 642.527344 225.492188 642.6875 225.734375 C 643.054688 226.292969 643.894531 226.808594 644.664062 226.945312 C 645.734375 227.140625 645.738281 227.28125 644.679688 227.574219 C 643.398438 227.929688 642.585938 228.625 642.203125 229.691406 C 642.042969 230.140625 641.859375 230.640625 641.792969 230.808594 C 641.710938 231.027344 641.617188 230.863281 641.46875 230.234375 Z M 608.5625 230.203125 C 608.128906 228.632812 607.457031 227.988281 605.761719 227.527344 L 604.726562 227.242188 L 605.859375 226.9375 C 607.597656 226.464844 608.191406 225.839844 608.605469 224.03125 L 608.800781 223.179688 L 609.015625 224.03125 C 609.46875 225.828125 610.214844 226.574219 612.015625 227.027344 L 612.867188 227.242188 L 612.101562 227.441406 C 610.472656 227.859375 609.714844 228.503906 609.230469 229.878906 C 609.058594 230.363281 608.882812 230.796875 608.839844 230.839844 C 608.796875 230.882812 608.671875 230.597656 608.5625 230.203125 Z M 608.5625 230.203125 " fill-opacity="1" fill-rule="nonzero"/></g><path fill="#52b9d0" d="M 277.441406 747.839844 C 331.488281 819.710938 397.300781 775.992188 456.617188 743.660156 C 509.21875 715 561.59375 713.105469 613.582031 757.855469 C 567.398438 697.371094 510.511719 691.109375 445.882812 724.089844 C 392.964844 751.089844 335.824219 799.875 277.441406 747.839844 " fill-opacity="1" fill-rule="evenodd"/><g clip-path="url(#0fe9fcb25e)"><path fill="#004aad" d="M 295.808594 779.5625 C 349.144531 851.433594 414.082031 807.714844 472.613281 775.382812 C 524.519531 746.722656 576.199219 744.828125 627.5 789.578125 C 581.929688 729.09375 525.796875 722.832031 462.023438 755.8125 C 409.804688 782.8125 353.417969 831.597656 295.808594 779.5625 " fill-opacity="1" fill-rule="evenodd"/></g><path fill="#004aad" d="M 357.394531 749.011719 C 329.988281 730.273438 314.277344 704.292969 314.132812 668.679688 C 314.039062 648.363281 285.03125 655.140625 286.375 671.976562 C 289.5 711.058594 314.96875 735.566406 357.394531 749.011719 " fill-opacity="1" fill-rule="evenodd"/><path fill="#004aad" d="M 355.289062 753.671875 C 331.679688 754.183594 311.839844 745.667969 297.007812 725.132812 C 288.542969 713.421875 274.574219 729.355469 282.320312 738.535156 C 300.3125 759.839844 325.1875 763.464844 355.289062 753.671875 " fill-opacity="1" fill-rule="evenodd"/><path fill="#004aad" d="M 374.28125 721.460938 C 366.980469 721.460938 361.0625 727.378906 361.0625 734.679688 C 361.0625 741.980469 366.980469 747.898438 374.28125 747.898438 C 381.582031 747.898438 387.5 741.980469 387.5 734.679688 C 387.5 727.378906 381.582031 721.460938 374.28125 721.460938 " fill-opacity="1" fill-rule="evenodd"/><path fill="#004aad" d="M 403.078125 710.441406 C 399.082031 710.441406 395.84375 713.683594 395.84375 717.679688 C 395.84375 721.675781 399.082031 724.917969 403.078125 724.917969 C 407.074219 724.917969 410.316406 721.675781 410.316406 717.679688 C 410.316406 713.683594 407.074219 710.441406 403.078125 710.441406 " fill-opacity="1" fill-rule="evenodd"/><path fill="#004aad" d="M 375.808594 689.574219 C 370.277344 689.574219 365.789062 694.058594 365.789062 699.59375 C 365.789062 705.125 370.277344 709.613281 375.808594 709.613281 C 381.339844 709.613281 385.828125 705.125 385.828125 699.59375 C 385.828125 694.058594 381.339844 689.574219 375.808594 689.574219 " fill-opacity="1" fill-rule="evenodd"/><g clip-path="url(#20ece58bde)"><g transform="matrix(1, 0, 0, 1, 627, 656)"><g clip-path="url(#6132db37f2)"><g clip-path="url(#413a296771)"><path fill="#004aad" d="M 350.804688 91.839844 C 296.757812 163.710938 230.945312 119.992188 171.628906 87.660156 C 119.027344 59 66.652344 57.105469 14.664062 101.855469 C 60.847656 41.371094 117.734375 35.109375 182.363281 68.089844 C 235.28125 95.089844 292.421875 143.875 350.804688 91.839844 " fill-opacity="1" fill-rule="evenodd"/></g><g clip-path="url(#1ecff2ccaf)"><path fill="#52b9d0" d="M 332.4375 123.5625 C 279.101562 195.433594 214.164062 151.714844 155.632812 119.382812 C 103.726562 90.722656 52.046875 88.828125 0.746094 133.578125 C 46.316406 73.09375 102.449219 66.832031 166.222656 99.8125 C 218.441406 126.8125 274.828125 175.597656 332.4375 123.5625 " fill-opacity="1" fill-rule="evenodd"/></g><g clip-path="url(#314ea3794a)"><path fill="#52b9d0" d="M 270.851562 93.011719 C 298.257812 74.273438 313.96875 48.292969 314.113281 12.679688 C 314.207031 -7.636719 343.214844 -0.859375 341.871094 15.976562 C 338.742188 55.058594 313.277344 79.566406 270.851562 93.011719 " fill-opacity="1" fill-rule="evenodd"/></g><path fill="#52b9d0" d="M 272.957031 97.671875 C 296.566406 98.183594 316.40625 89.667969 331.238281 69.132812 C 339.703125 57.421875 353.671875 73.355469 345.925781 82.535156 C 327.933594 103.839844 303.058594 107.464844 272.957031 97.671875 " fill-opacity="1" fill-rule="evenodd"/><path fill="#52b9d0" d="M 253.964844 65.460938 C 261.265625 65.460938 267.183594 71.378906 267.183594 78.679688 C 267.183594 85.980469 261.265625 91.898438 253.964844 91.898438 C 246.664062 91.898438 240.746094 85.980469 240.746094 78.679688 C 240.746094 71.378906 246.664062 65.460938 253.964844 65.460938 " fill-opacity="1" fill-rule="evenodd"/><path fill="#52b9d0" d="M 225.167969 54.441406 C 229.164062 54.441406 232.402344 57.683594 232.402344 61.679688 C 232.402344 65.675781 229.164062 68.917969 225.167969 68.917969 C 221.167969 68.917969 217.929688 65.675781 217.929688 61.679688 C 217.929688 57.683594 221.167969 54.441406 225.167969 54.441406 " fill-opacity="1" fill-rule="evenodd"/><path fill="#52b9d0" d="M 252.4375 33.574219 C 257.96875 33.574219 262.457031 38.058594 262.457031 43.59375 C 262.457031 49.125 257.96875 53.613281 252.4375 53.613281 C 246.902344 53.613281 242.417969 49.125 242.417969 43.59375 C 242.417969 38.058594 246.902344 33.574219 252.4375 33.574219 " fill-opacity="1" fill-rule="evenodd"/></g></g></g><path fill="#52b9d0" d="M 261.03125 379.082031 L 223.0625 401.445312 C 226.875 412.726562 228.628906 420.207031 228.332031 423.875 C 228.609375 429.179688 227.984375 433.9375 226.460938 438.15625 C 204.449219 460.566406 189.96875 477.574219 183.027344 489.171875 C 178.546875 496.1875 168.773438 519.507812 153.699219 559.136719 C 151.011719 565.324219 147.511719 571.214844 143.203125 576.804688 C 139.429688 582.167969 132.777344 586.46875 123.242188 589.699219 C 93.523438 590.296875 75.167969 592.410156 68.175781 596.042969 C 52.503906 604.625 41.53125 617.125 35.246094 633.546875 C 30.382812 646.367188 32.496094 664.429688 41.59375 687.730469 C 42.652344 682.023438 44.273438 676.582031 46.457031 671.40625 C 48.644531 666.230469 51.390625 661.320312 54.703125 656.679688 L 60.09375 649.917969 C 67.839844 641.167969 77.84375 633.484375 90.09375 626.863281 C 98.660156 647.699219 101.332031 660.3125 98.113281 664.703125 C 96.421875 671.097656 87.484375 684.34375 71.300781 704.453125 C 75.457031 708.476562 83.992188 706.890625 96.902344 699.6875 C 107.183594 693.042969 113.6875 687.179688 116.414062 682.097656 C 120.640625 676.105469 124.082031 669.070312 126.738281 660.996094 C 129.519531 651.597656 130.863281 643.746094 130.777344 637.4375 C 130.765625 631.691406 129.347656 622.332031 126.523438 609.359375 C 126.164062 606.933594 126.707031 604.792969 128.148438 602.945312 C 128.96875 601.078125 133.542969 598.742188 141.875 595.941406 C 162.449219 592.976562 174.550781 590.691406 178.183594 589.089844 C 188.382812 585.222656 199.976562 578.894531 212.964844 570.101562 C 226.628906 560.15625 239.660156 543.558594 252.054688 520.3125 C 257.023438 511.679688 260.382812 501.84375 262.125 490.796875 C 263 485.277344 263.46875 479.453125 263.535156 473.328125 C 264.070312 470.640625 263.265625 460.773438 261.113281 443.726562 C 270.644531 428.851562 275.699219 418.265625 276.269531 411.960938 C 278.246094 401.292969 273.164062 390.332031 261.03125 379.082031 " fill-opacity="0.996" fill-rule="nonzero"/><path fill="#52b9d0" d="M 225.4375 380.601562 L 224.550781 380.613281 C 213.253906 381.011719 197.800781 387.566406 178.191406 400.28125 C 158.589844 413.523438 143.167969 428.140625 131.925781 444.136719 C 125.53125 452.984375 119.402344 463.023438 113.539062 474.253906 C 115.972656 474.082031 118.367188 473.628906 120.726562 472.898438 C 125.984375 471.0625 130.023438 468.859375 132.839844 466.292969 C 133.730469 465.542969 134.601562 464.742188 135.457031 463.886719 C 140.648438 457.402344 143.738281 453.703125 144.71875 452.789062 C 145.335938 452.050781 146.320312 451.136719 147.667969 450.054688 L 152.121094 447.695312 C 157.785156 446.773438 162.265625 445.402344 165.558594 443.585938 C 167.609375 442.59375 173.582031 437.636719 183.476562 428.714844 C 183.992188 428.253906 184.292969 428.300781 184.371094 428.847656 C 175.164062 443.839844 155.511719 465.460938 125.417969 493.71875 C 124.292969 496.0625 124.710938 497.195312 126.667969 497.109375 C 127.550781 497.160156 128.996094 495.542969 131.003906 492.253906 C 131.550781 491.785156 132.035156 491.742188 132.453125 492.121094 C 132.855469 492.722656 132.898438 493.4375 132.585938 494.257812 C 130.492188 497.25 129.390625 499.246094 129.285156 500.246094 C 130 501.421875 131.574219 501.996094 134.015625 501.96875 C 134.972656 502.140625 136.441406 501.316406 138.414062 499.496094 L 146.273438 489.71875 C 146.433594 489.617188 146.589844 489.546875 146.738281 489.511719 C 148.039062 488.929688 149.050781 491.578125 149.773438 497.460938 C 150.167969 498.148438 150.679688 498.214844 151.316406 497.660156 C 152.234375 496.898438 153.074219 494.8125 153.832031 491.390625 L 155.90625 472.238281 C 171.359375 465.046875 182.464844 458.402344 189.226562 452.304688 C 195.859375 446.675781 201.957031 437.507812 207.519531 424.808594 L 229.132812 412.214844 L 247.140625 396.351562 C 241.246094 388.257812 237.554688 383.878906 236.066406 383.214844 C 233.484375 381.570312 229.941406 380.699219 225.4375 380.601562 " fill-opacity="0.996" fill-rule="nonzero"/><path fill="#52b9d0" d="M 181.410156 340.292969 L 178.34375 340.378906 C 174.164062 340.605469 169.601562 341.292969 164.664062 342.433594 C 154.511719 345.128906 148.996094 346.890625 148.121094 347.714844 C 148.476562 348.523438 151.300781 349.488281 156.59375 350.613281 C 159.914062 351.253906 166.382812 351.800781 175.992188 352.261719 C 177.1875 352.445312 177.414062 352.808594 176.664062 353.351562 C 172.730469 355.386719 165.550781 357.695312 155.132812 360.277344 C 147.359375 361.914062 139.378906 363.203125 131.195312 364.144531 C 129.429688 364.570312 127.6875 365.078125 125.96875 365.664062 C 119.898438 367.632812 113.101562 371.332031 105.585938 376.765625 C 102.667969 379.085938 100.40625 381.445312 98.804688 383.839844 C 98.214844 384.761719 98.328125 385.453125 99.152344 385.910156 C 99.71875 386.039062 100.296875 386.054688 100.882812 385.957031 C 108.585938 383.75 114.226562 382.28125 117.808594 381.542969 C 120.152344 381.035156 121.667969 380.890625 122.355469 381.105469 C 115.089844 388.828125 107.710938 395.113281 100.21875 399.964844 C 95.453125 402.808594 90.59375 404.503906 85.628906 405.054688 C 84.089844 405.214844 82.300781 405.160156 80.273438 404.894531 C 77.863281 404.558594 74.660156 403.746094 70.671875 402.449219 C 70.375 402.402344 70.15625 402.511719 70.007812 402.773438 C 72.507812 407.246094 75.667969 410.992188 79.492188 414.011719 C 80.257812 414.964844 83.425781 416.957031 89.003906 419.992188 C 91.339844 421.101562 93.820312 422.070312 96.445312 422.890625 C 90.386719 430.089844 80.824219 437.132812 67.757812 444.023438 C 67.453125 444.234375 67.496094 444.5625 67.882812 445 C 69.40625 445.78125 71.003906 446.386719 72.679688 446.820312 C 75.855469 447.710938 79.6875 447.863281 84.171875 447.269531 C 87.515625 446.78125 91.074219 445.804688 94.84375 444.339844 L 100.660156 441.777344 C 104.640625 439.824219 108.839844 437.386719 113.25 434.457031 C 115.175781 433.605469 122.289062 428.113281 134.582031 417.988281 C 132.152344 426.644531 127.894531 434.121094 121.8125 440.417969 L 116.90625 444.921875 C 113.410156 447.773438 109.453125 450.335938 105.042969 452.597656 C 100.628906 454.863281 95.761719 456.832031 90.4375 458.507812 C 93.160156 461.070312 97.324219 462.519531 102.921875 462.863281 C 108.542969 462.863281 114.914062 460.765625 122.03125 456.578125 C 123.117188 456.171875 126.863281 453.550781 133.273438 448.722656 L 229.105469 387.992188 C 225.53125 374.046875 219.835938 362.9375 212.019531 354.664062 C 202.347656 344.59375 192.144531 339.804688 181.410156 340.292969 " fill-opacity="0.996" fill-rule="nonzero"/><path fill="#52b9d0" d="M 320.371094 246.363281 L 320.066406 246.363281 C 316.660156 246.308594 313.855469 247.058594 311.652344 248.617188 C 310.460938 249.414062 309.335938 250.429688 308.277344 251.664062 C 307.667969 252.007812 306.21875 254.351562 303.9375 258.699219 C 301.019531 265.515625 298.519531 272.34375 296.4375 279.1875 L 286.640625 319.859375 C 285.933594 322.496094 284.871094 325.28125 283.449219 328.21875 C 282.6875 329.691406 279.132812 333.769531 272.789062 340.453125 L 255.992188 364.09375 C 253.726562 367.117188 251.914062 369.027344 250.550781 369.832031 C 247.371094 371.253906 245.421875 366.757812 244.707031 356.34375 C 244.949219 354.316406 245.550781 352.761719 246.507812 351.675781 C 251.839844 348.15625 254.546875 345.996094 254.632812 345.199219 C 255.191406 343.121094 254.488281 341.148438 252.519531 339.28125 C 253.074219 336.769531 253.261719 335.347656 253.078125 335.019531 C 251.972656 334.34375 250.804688 331.734375 249.570312 327.195312 C 248.996094 326.625 246.398438 326.320312 241.78125 326.28125 C 239.796875 321.453125 236.464844 318.449219 231.789062 317.269531 C 231.160156 316.527344 230.695312 314.269531 230.394531 310.496094 C 230.21875 309.746094 229.59375 308.980469 228.519531 308.203125 C 225.8125 307.433594 222.511719 307 218.617188 306.898438 C 215.785156 306.898438 213.066406 307.246094 210.460938 307.949219 L 206.644531 309.265625 C 199.175781 312.421875 192.734375 318.734375 187.324219 328.207031 L 185.460938 332.285156 C 184.429688 335.054688 183.808594 337.933594 183.605469 340.917969 C 183.402344 343.902344 183.617188 346.992188 184.246094 350.1875 C 184.871094 353.386719 185.914062 356.6875 187.375 360.097656 L 194.410156 373.390625 C 199.40625 381.097656 214.179688 391.851562 238.726562 405.648438 L 269.871094 400.050781 C 267.0625 390.390625 267.28125 382.296875 270.523438 375.773438 C 272.132812 371.972656 278.6875 363.640625 290.195312 350.78125 C 293.390625 345.886719 295.730469 341.160156 297.210938 336.609375 C 302.515625 311.667969 305.648438 293.949219 306.605469 283.453125 C 308.253906 276.6875 309.402344 272.472656 310.042969 270.816406 C 311.226562 267.785156 312.667969 265.386719 314.363281 263.625 C 323.71875 258.828125 328.707031 255.394531 329.335938 253.324219 C 329.886719 248.933594 326.898438 246.613281 320.371094 246.363281 " fill-opacity="0.996" fill-rule="nonzero"/><g clip-path="url(#f1d26d5252)"><g transform="matrix(1, 0, 0, 1, 927, 245)"><g clip-path="url(#019a2adaaf)"><path fill="#52b9d0" d="M 69.597656 134.082031 L 107.566406 156.445312 C 103.753906 167.726562 101.996094 175.207031 102.296875 178.875 C 102.019531 184.179688 102.640625 188.9375 104.167969 193.15625 C 126.179688 215.566406 140.65625 232.574219 147.601562 244.171875 C 152.082031 251.1875 161.855469 274.507812 176.929688 314.136719 C 179.617188 320.324219 183.117188 326.214844 187.425781 331.804688 C 191.199219 337.167969 197.851562 341.46875 207.386719 344.699219 C 237.105469 345.296875 255.460938 347.410156 262.453125 351.042969 C 278.121094 359.625 289.097656 372.125 295.378906 388.546875 C 300.246094 401.367188 298.132812 419.429688 289.035156 442.730469 C 287.976562 437.023438 286.355469 431.582031 284.167969 426.40625 C 281.984375 421.230469 279.234375 416.320312 275.925781 411.679688 L 270.535156 404.917969 C 262.785156 396.167969 252.785156 388.484375 240.53125 381.863281 C 231.96875 402.699219 229.296875 415.3125 232.511719 419.703125 C 234.207031 426.097656 243.144531 439.34375 259.328125 459.453125 C 255.171875 463.476562 246.636719 461.890625 233.726562 454.6875 C 223.445312 448.042969 216.941406 442.179688 214.210938 437.097656 C 209.988281 431.105469 206.546875 424.070312 203.886719 415.996094 C 201.109375 406.597656 199.761719 398.746094 199.851562 392.4375 C 199.859375 386.691406 201.277344 377.332031 204.105469 364.359375 C 204.460938 361.933594 203.921875 359.792969 202.480469 357.945312 C 201.660156 356.078125 197.085938 353.742188 188.753906 350.941406 C 168.179688 347.976562 156.074219 345.691406 152.445312 344.089844 C 142.246094 340.222656 130.652344 333.894531 117.664062 325.101562 C 104 315.15625 90.96875 298.558594 78.570312 275.3125 C 73.601562 266.679688 70.246094 256.84375 68.503906 245.796875 C 67.628906 240.277344 67.160156 234.453125 67.09375 228.328125 C 66.554688 225.640625 67.363281 215.773438 69.515625 198.726562 C 59.980469 183.851562 54.929688 173.265625 54.359375 166.960938 C 52.382812 156.292969 57.460938 145.332031 69.597656 134.082031 " fill-opacity="0.996" fill-rule="nonzero"/><path fill="#52b9d0" d="M 105.191406 135.601562 L 106.078125 135.613281 C 117.375 136.011719 132.824219 142.566406 152.433594 155.28125 C 172.039062 168.523438 187.460938 183.140625 198.703125 199.136719 C 205.097656 207.984375 211.226562 218.023438 217.085938 229.253906 C 214.65625 229.082031 212.261719 228.628906 209.902344 227.898438 C 204.640625 226.0625 200.605469 223.859375 197.785156 221.292969 C 196.894531 220.542969 196.023438 219.742188 195.171875 218.886719 C 189.980469 212.402344 186.890625 208.703125 185.910156 207.789062 C 185.289062 207.050781 184.308594 206.136719 182.960938 205.054688 L 178.507812 202.695312 C 172.839844 201.773438 168.363281 200.402344 165.066406 198.585938 C 163.015625 197.59375 157.042969 192.636719 147.152344 183.714844 C 146.632812 183.253906 146.335938 183.300781 146.257812 183.847656 C 155.464844 198.839844 175.113281 220.460938 205.207031 248.71875 C 206.335938 251.0625 205.917969 252.195312 203.957031 252.109375 C 203.074219 252.160156 201.628906 250.542969 199.625 247.253906 C 199.078125 246.785156 198.59375 246.742188 198.171875 247.121094 C 197.773438 247.722656 197.726562 248.4375 198.042969 249.257812 C 200.136719 252.25 201.234375 254.246094 201.339844 255.246094 C 200.628906 256.421875 199.050781 256.996094 196.613281 256.96875 C 195.652344 257.140625 194.1875 256.316406 192.214844 254.496094 L 184.355469 244.71875 C 184.195312 244.617188 184.039062 244.546875 183.886719 244.511719 C 182.585938 243.929688 181.574219 246.578125 180.855469 252.460938 C 180.460938 253.148438 179.945312 253.214844 179.3125 252.660156 C 178.390625 251.898438 177.550781 249.8125 176.792969 246.390625 L 174.722656 227.238281 C 159.269531 220.046875 148.160156 213.402344 141.402344 207.304688 C 134.769531 201.675781 128.671875 192.507812 123.109375 179.808594 L 101.496094 167.214844 L 83.488281 151.351562 C 89.378906 143.257812 93.070312 138.878906 94.5625 138.214844 C 97.144531 136.570312 100.6875 135.699219 105.191406 135.601562 " fill-opacity="0.996" fill-rule="nonzero"/><path fill="#52b9d0" d="M 149.21875 95.292969 L 152.28125 95.378906 C 156.464844 95.605469 161.023438 96.292969 165.964844 97.433594 C 176.117188 100.128906 181.632812 101.890625 182.507812 102.714844 C 182.152344 103.523438 179.328125 104.488281 174.035156 105.613281 C 170.714844 106.253906 164.246094 106.800781 154.632812 107.261719 C 153.4375 107.445312 153.214844 107.808594 153.960938 108.351562 C 157.898438 110.386719 165.078125 112.695312 175.496094 115.277344 C 183.269531 116.914062 191.246094 118.203125 199.433594 119.144531 C 201.195312 119.570312 202.9375 120.078125 204.660156 120.664062 C 210.730469 122.632812 217.527344 126.332031 225.042969 131.765625 C 227.960938 134.085938 230.222656 136.445312 231.824219 138.839844 C 232.414062 139.761719 232.300781 140.453125 231.476562 140.910156 C 230.910156 141.039062 230.332031 141.054688 229.742188 140.957031 C 222.042969 138.75 216.402344 137.28125 212.820312 136.542969 C 210.476562 136.035156 208.960938 135.890625 208.273438 136.105469 C 215.539062 143.828125 222.917969 150.113281 230.410156 154.964844 C 235.171875 157.808594 240.035156 159.503906 244.996094 160.054688 C 246.539062 160.214844 248.324219 160.160156 250.355469 159.894531 C 252.765625 159.558594 255.96875 158.746094 259.957031 157.449219 C 260.253906 157.402344 260.472656 157.511719 260.621094 157.773438 C 258.121094 162.246094 254.957031 165.992188 251.132812 169.011719 C 250.371094 169.964844 247.199219 171.957031 241.625 174.992188 C 239.289062 176.101562 236.808594 177.070312 234.183594 177.890625 C 240.242188 185.089844 249.804688 192.132812 262.871094 199.023438 C 263.171875 199.234375 263.132812 199.5625 262.746094 200 C 261.222656 200.78125 259.621094 201.386719 257.945312 201.820312 C 254.773438 202.710938 250.941406 202.863281 246.453125 202.269531 C 243.113281 201.78125 239.554688 200.804688 235.785156 199.339844 L 229.96875 196.777344 C 225.984375 194.824219 221.789062 192.386719 217.378906 189.457031 C 215.453125 188.605469 208.339844 183.113281 196.046875 172.988281 C 198.476562 181.644531 202.730469 189.121094 208.816406 195.417969 L 213.71875 199.921875 C 217.21875 202.773438 221.175781 205.335938 225.585938 207.597656 C 229.996094 209.863281 234.867188 211.832031 240.191406 213.507812 C 237.464844 216.070312 233.304688 217.519531 227.707031 217.863281 C 222.085938 217.863281 215.714844 215.765625 208.59375 211.578125 C 207.511719 211.171875 203.765625 208.550781 197.355469 203.722656 L 101.523438 142.992188 C 105.09375 129.046875 110.789062 117.9375 118.609375 109.664062 C 128.28125 99.59375 138.484375 94.804688 149.21875 95.292969 " fill-opacity="0.996" fill-rule="nonzero"/><path fill="#52b9d0" d="M 10.257812 1.363281 L 10.5625 1.363281 C 13.96875 1.308594 16.773438 2.058594 18.976562 3.617188 C 20.164062 4.414062 21.289062 5.429688 22.351562 6.664062 C 22.960938 7.007812 24.40625 9.351562 26.691406 13.699219 C 29.609375 20.515625 32.109375 27.34375 34.1875 34.1875 L 43.988281 74.859375 C 44.695312 77.496094 45.757812 80.28125 47.179688 83.21875 C 47.941406 84.691406 51.492188 88.769531 57.839844 95.453125 L 74.636719 119.09375 C 76.902344 122.117188 78.714844 124.027344 80.078125 124.832031 C 83.257812 126.253906 85.207031 121.757812 85.921875 111.34375 C 85.679688 109.316406 85.078125 107.761719 84.121094 106.675781 C 78.789062 103.15625 76.078125 100.996094 75.992188 100.199219 C 75.4375 98.121094 76.140625 96.148438 78.105469 94.28125 C 77.550781 91.769531 77.367188 90.347656 77.550781 90.019531 C 78.65625 89.34375 79.824219 86.734375 81.058594 82.195312 C 81.632812 81.625 84.230469 81.320312 88.84375 81.28125 C 90.832031 76.453125 94.160156 73.449219 98.835938 72.269531 C 99.46875 71.527344 99.933594 69.269531 100.230469 65.496094 C 100.410156 64.746094 101.035156 63.980469 102.109375 63.203125 C 104.816406 62.433594 108.117188 62 112.011719 61.898438 C 114.84375 61.898438 117.5625 62.246094 120.164062 62.949219 L 123.984375 64.265625 C 131.453125 67.421875 137.894531 73.734375 143.304688 83.207031 L 145.167969 87.285156 C 146.199219 90.054688 146.816406 92.933594 147.019531 95.917969 C 147.222656 98.902344 147.011719 101.992188 146.382812 105.1875 C 145.753906 108.386719 144.710938 111.6875 143.253906 115.097656 L 136.21875 128.390625 C 131.21875 136.097656 116.449219 146.851562 91.898438 160.648438 L 60.757812 155.050781 C 63.566406 145.390625 63.347656 137.296875 60.101562 130.773438 C 58.496094 126.972656 51.941406 118.640625 40.433594 105.78125 C 37.238281 100.886719 34.898438 96.160156 33.417969 91.609375 C 28.113281 66.667969 24.980469 48.949219 24.023438 38.453125 C 22.371094 31.6875 21.226562 27.472656 20.582031 25.816406 C 19.402344 22.785156 17.960938 20.386719 16.261719 18.625 C 6.910156 13.828125 1.921875 10.394531 1.292969 8.324219 C 0.738281 3.933594 3.726562 1.613281 10.257812 1.363281 " fill-opacity="0.996" fill-rule="nonzero"/></g></g></g><g transform="matrix(1, 0, 0, 1, 126, 31)"><g clip-path="url(#ad6dd4ef72)"><g fill="#004aad" fill-opacity="1"><g transform="translate(6.229503, 126.933671)"><g><path d="M 0.84375 0.421875 C 0 0.421875 -0.628906 0.117188 -1.046875 -0.484375 C -1.460938 -1.097656 -1.671875 -1.820312 -1.671875 -2.65625 C -1.578125 -4.050781 -1.296875 -4.890625 -0.828125 -5.171875 C -0.367188 -5.453125 0.179688 -5.59375 0.828125 -5.59375 C 1.484375 -5.59375 1.90625 -5.59375 2.09375 -5.59375 C 4.894531 -5.59375 6.945312 -6.316406 8.25 -7.765625 C 9.5625 -9.210938 10.613281 -10.84375 11.40625 -12.65625 C 12.195312 -14.476562 12.734375 -15.71875 13.015625 -16.375 L 37.484375 -74.28125 C 38.046875 -75.675781 38.328125 -76.796875 38.328125 -77.640625 C 38.328125 -79.316406 37.671875 -80.523438 36.359375 -81.265625 C 35.054688 -82.015625 33.242188 -82.625 30.921875 -83.09375 C 29.328125 -83.375 28.34375 -83.65625 27.96875 -83.9375 C 27.601562 -84.21875 27.421875 -85.007812 27.421875 -86.3125 C 27.421875 -87.425781 27.722656 -88.171875 28.328125 -88.546875 C 28.929688 -88.921875 29.890625 -89.109375 31.203125 -89.109375 C 35.859375 -89.109375 39.5625 -88.757812 42.3125 -88.0625 C 45.0625 -87.363281 47.460938 -85.960938 49.515625 -83.859375 C 51.566406 -81.765625 53.476562 -78.570312 55.25 -74.28125 L 78.765625 -16.375 C 80.160156 -12.820312 81.507812 -10.160156 82.8125 -8.390625 C 84.125 -6.617188 86.082031 -5.6875 88.6875 -5.59375 L 89.53125 -5.59375 C 90.457031 -5.59375 91.109375 -5.425781 91.484375 -5.09375 C 91.859375 -4.769531 92.09375 -3.957031 92.1875 -2.65625 C 92.1875 -1.820312 91.972656 -1.097656 91.546875 -0.484375 C 91.128906 0.117188 90.503906 0.421875 89.671875 0.421875 C 83.703125 0.140625 78.570312 0 74.28125 0 C 68.6875 0 62.90625 0.140625 56.9375 0.421875 C 56.09375 0.421875 55.460938 0.117188 55.046875 -0.484375 C 54.628906 -1.097656 54.421875 -1.820312 54.421875 -2.65625 C 54.515625 -3.957031 54.742188 -4.769531 55.109375 -5.09375 C 55.484375 -5.425781 56.140625 -5.59375 57.078125 -5.59375 C 60.242188 -5.59375 62.476562 -5.894531 63.78125 -6.5 C 65.09375 -7.113281 65.75 -8.210938 65.75 -9.796875 C 65.75 -11.003906 65.1875 -13.195312 64.0625 -16.375 L 59.3125 -27.984375 L 24.765625 -27.984375 C 22.429688 -22.203125 21.097656 -18.84375 20.765625 -17.90625 C 20.441406 -16.96875 20.28125 -16.457031 20.28125 -16.375 C 19.164062 -12.820312 18.609375 -10.535156 18.609375 -9.515625 C 18.609375 -7.929688 19.304688 -6.878906 20.703125 -6.359375 C 22.097656 -5.847656 24.753906 -5.59375 28.671875 -5.59375 L 29.515625 -5.59375 C 30.453125 -5.59375 31.101562 -5.425781 31.46875 -5.09375 C 31.84375 -4.769531 32.078125 -3.957031 32.171875 -2.65625 C 32.171875 -1.820312 31.960938 -1.097656 31.546875 -0.484375 C 31.128906 0.117188 30.5 0.421875 29.65625 0.421875 C 23.6875 0.140625 18.601562 0 14.40625 0 C 11.425781 0 6.90625 0.140625 0.84375 0.421875 Z M 27.421875 -34 L 56.796875 -34 L 42.671875 -69.953125 L 42.25 -69.953125 Z M 27.421875 -34 "/></g></g></g><g fill="#004aad" fill-opacity="1"><g transform="translate(144.725885, 126.933671)"><g><path d="M 25.046875 0.421875 C 24.203125 0.421875 23.566406 0.117188 23.140625 -0.484375 C 22.722656 -1.097656 22.515625 -1.820312 22.515625 -2.65625 C 22.609375 -4.050781 22.890625 -4.890625 23.359375 -5.171875 C 23.828125 -5.453125 24.710938 -5.59375 26.015625 -5.59375 C 28.722656 -5.59375 30.726562 -6.082031 32.03125 -7.0625 C 33.34375 -8.039062 34.160156 -9.253906 34.484375 -10.703125 C 34.804688 -12.148438 35.015625 -14.039062 35.109375 -16.375 L 35.109375 -83.09375 L 25.453125 -83.09375 C 22.285156 -83 19.835938 -82.320312 18.109375 -81.0625 C 16.390625 -79.800781 15.085938 -77.9375 14.203125 -75.46875 C 13.316406 -73 12.546875 -69.476562 11.890625 -64.90625 C 11.796875 -64.164062 11.234375 -63.5625 10.203125 -63.09375 C 9.179688 -62.625 8.113281 -62.390625 7 -62.390625 C 6.15625 -62.390625 5.382812 -62.644531 4.6875 -63.15625 C 3.988281 -63.675781 3.640625 -64.351562 3.640625 -65.1875 L 4.0625 -84.90625 C 4.0625 -87.144531 5.316406 -88.265625 7.828125 -88.265625 L 76.234375 -88.265625 C 78.660156 -88.265625 79.875 -87.144531 79.875 -84.90625 L 80.4375 -65.1875 C 80.4375 -64.351562 80.0625 -63.675781 79.3125 -63.15625 C 78.570312 -62.644531 77.78125 -62.390625 76.9375 -62.390625 C 75.820312 -62.390625 74.773438 -62.625 73.796875 -63.09375 C 72.816406 -63.5625 72.28125 -64.164062 72.1875 -64.90625 C 71.4375 -69.570312 70.640625 -73.113281 69.796875 -75.53125 C 68.960938 -77.957031 67.660156 -79.800781 65.890625 -81.0625 C 64.117188 -82.320312 61.644531 -83 58.46875 -83.09375 L 48.96875 -83.09375 L 48.96875 -16.375 C 49.0625 -14.039062 49.269531 -12.148438 49.59375 -10.703125 C 49.914062 -9.253906 50.726562 -8.039062 52.03125 -7.0625 C 53.34375 -6.082031 55.347656 -5.59375 58.046875 -5.59375 L 58.890625 -5.59375 C 59.734375 -5.59375 60.363281 -5.425781 60.78125 -5.09375 C 61.195312 -4.769531 61.453125 -3.957031 61.546875 -2.65625 C 61.546875 -1.820312 61.335938 -1.097656 60.921875 -0.484375 C 60.503906 0.117188 59.875 0.421875 59.03125 0.421875 C 53.0625 0.140625 47.5625 0 42.53125 0 C 36.9375 0 31.109375 0.140625 25.046875 0.421875 Z M 25.046875 0.421875 "/></g></g></g><g fill="#004aad" fill-opacity="1"><g transform="translate(275.808356, 126.933671)"><g><path d="M 8.390625 0.421875 C 7.648438 0.421875 7.066406 0.117188 6.640625 -0.484375 C 6.222656 -1.097656 6.015625 -1.820312 6.015625 -2.65625 C 6.109375 -4.050781 6.382812 -4.890625 6.84375 -5.171875 C 7.3125 -5.453125 8.203125 -5.59375 9.515625 -5.59375 C 12.210938 -5.59375 14.210938 -6.082031 15.515625 -7.0625 C 16.828125 -8.039062 17.644531 -9.253906 17.96875 -10.703125 C 18.300781 -12.148438 18.515625 -14.039062 18.609375 -16.375 L 18.609375 -71.90625 C 18.515625 -74.238281 18.300781 -76.125 17.96875 -77.5625 C 17.644531 -79.007812 16.828125 -80.222656 15.515625 -81.203125 C 14.210938 -82.179688 12.210938 -82.671875 9.515625 -82.671875 L 8.671875 -82.671875 C 7.742188 -82.671875 7.09375 -82.832031 6.71875 -83.15625 C 6.34375 -83.488281 6.109375 -84.304688 6.015625 -85.609375 C 6.015625 -86.453125 6.222656 -87.175781 6.640625 -87.78125 C 7.066406 -88.382812 7.648438 -88.6875 8.390625 -88.6875 C 14.546875 -88.40625 20.097656 -88.265625 25.046875 -88.265625 C 30.640625 -88.265625 36.46875 -88.40625 42.53125 -88.6875 C 43.363281 -88.6875 43.988281 -88.382812 44.40625 -87.78125 C 44.832031 -87.175781 45.046875 -86.453125 45.046875 -85.609375 C 44.953125 -84.210938 44.644531 -83.375 44.125 -83.09375 C 43.613281 -82.8125 42.753906 -82.671875 41.546875 -82.671875 C 38.835938 -82.671875 36.832031 -82.179688 35.53125 -81.203125 C 34.226562 -80.222656 33.410156 -79.007812 33.078125 -77.5625 C 32.753906 -76.125 32.546875 -74.238281 32.453125 -71.90625 L 32.453125 -14.265625 C 32.640625 -12.304688 32.875 -10.789062 33.15625 -9.71875 C 33.4375 -8.644531 34.273438 -7.664062 35.671875 -6.78125 C 37.066406 -5.894531 39.257812 -5.5 42.25 -5.59375 L 54.84375 -5.59375 C 58.101562 -5.6875 60.570312 -6.222656 62.25 -7.203125 C 63.925781 -8.179688 65.253906 -9.695312 66.234375 -11.75 C 67.210938 -13.800781 68.40625 -17.160156 69.8125 -21.828125 C 70.457031 -23.503906 72.039062 -24.15625 74.5625 -23.78125 C 75.40625 -23.59375 76.195312 -23.21875 76.9375 -22.65625 C 77.6875 -22.101562 78.015625 -21.40625 77.921875 -20.5625 L 75.125 -2.9375 C 74.84375 -1.726562 74.421875 -0.9375 73.859375 -0.5625 C 73.296875 -0.1875 72.363281 0 71.0625 0 L 25.1875 0 C 20.144531 0 14.546875 0.140625 8.390625 0.421875 Z M 8.390625 0.421875 "/></g></g></g><g fill="#004aad" fill-opacity="1"><g transform="translate(402.834169, 126.933671)"><g><path d="M 0.84375 0.421875 C 0 0.421875 -0.628906 0.117188 -1.046875 -0.484375 C -1.460938 -1.097656 -1.671875 -1.820312 -1.671875 -2.65625 C -1.578125 -4.050781 -1.296875 -4.890625 -0.828125 -5.171875 C -0.367188 -5.453125 0.179688 -5.59375 0.828125 -5.59375 C 1.484375 -5.59375 1.90625 -5.59375 2.09375 -5.59375 C 4.894531 -5.59375 6.945312 -6.316406 8.25 -7.765625 C 9.5625 -9.210938 10.613281 -10.84375 11.40625 -12.65625 C 12.195312 -14.476562 12.734375 -15.71875 13.015625 -16.375 L 37.484375 -74.28125 C 38.046875 -75.675781 38.328125 -76.796875 38.328125 -77.640625 C 38.328125 -79.316406 37.671875 -80.523438 36.359375 -81.265625 C 35.054688 -82.015625 33.242188 -82.625 30.921875 -83.09375 C 29.328125 -83.375 28.34375 -83.65625 27.96875 -83.9375 C 27.601562 -84.21875 27.421875 -85.007812 27.421875 -86.3125 C 27.421875 -87.425781 27.722656 -88.171875 28.328125 -88.546875 C 28.929688 -88.921875 29.890625 -89.109375 31.203125 -89.109375 C 35.859375 -89.109375 39.5625 -88.757812 42.3125 -88.0625 C 45.0625 -87.363281 47.460938 -85.960938 49.515625 -83.859375 C 51.566406 -81.765625 53.476562 -78.570312 55.25 -74.28125 L 78.765625 -16.375 C 80.160156 -12.820312 81.507812 -10.160156 82.8125 -8.390625 C 84.125 -6.617188 86.082031 -5.6875 88.6875 -5.59375 L 89.53125 -5.59375 C 90.457031 -5.59375 91.109375 -5.425781 91.484375 -5.09375 C 91.859375 -4.769531 92.09375 -3.957031 92.1875 -2.65625 C 92.1875 -1.820312 91.972656 -1.097656 91.546875 -0.484375 C 91.128906 0.117188 90.503906 0.421875 89.671875 0.421875 C 83.703125 0.140625 78.570312 0 74.28125 0 C 68.6875 0 62.90625 0.140625 56.9375 0.421875 C 56.09375 0.421875 55.460938 0.117188 55.046875 -0.484375 C 54.628906 -1.097656 54.421875 -1.820312 54.421875 -2.65625 C 54.515625 -3.957031 54.742188 -4.769531 55.109375 -5.09375 C 55.484375 -5.425781 56.140625 -5.59375 57.078125 -5.59375 C 60.242188 -5.59375 62.476562 -5.894531 63.78125 -6.5 C 65.09375 -7.113281 65.75 -8.210938 65.75 -9.796875 C 65.75 -11.003906 65.1875 -13.195312 64.0625 -16.375 L 59.3125 -27.984375 L 24.765625 -27.984375 C 22.429688 -22.203125 21.097656 -18.84375 20.765625 -17.90625 C 20.441406 -16.96875 20.28125 -16.457031 20.28125 -16.375 C 19.164062 -12.820312 18.609375 -10.535156 18.609375 -9.515625 C 18.609375 -7.929688 19.304688 -6.878906 20.703125 -6.359375 C 22.097656 -5.847656 24.753906 -5.59375 28.671875 -5.59375 L 29.515625 -5.59375 C 30.453125 -5.59375 31.101562 -5.425781 31.46875 -5.09375 C 31.84375 -4.769531 32.078125 -3.957031 32.171875 -2.65625 C 32.171875 -1.820312 31.960938 -1.097656 31.546875 -0.484375 C 31.128906 0.117188 30.5 0.421875 29.65625 0.421875 C 23.6875 0.140625 18.601562 0 14.40625 0 C 11.425781 0 6.90625 0.140625 0.84375 0.421875 Z M 27.421875 -34 L 56.796875 -34 L 42.671875 -69.953125 L 42.25 -69.953125 Z M 27.421875 -34 "/></g></g></g><g fill="#004aad" fill-opacity="1"><g transform="translate(541.33055, 126.933671)"><g><path d="M 8.671875 0.421875 C 7.835938 0.421875 7.207031 0.117188 6.78125 -0.484375 C 6.363281 -1.097656 6.15625 -1.820312 6.15625 -2.65625 C 6.25 -4.050781 6.523438 -4.890625 6.984375 -5.171875 C 7.453125 -5.453125 8.34375 -5.59375 9.65625 -5.59375 C 12.351562 -5.59375 14.332031 -6.082031 15.59375 -7.0625 C 16.851562 -8.039062 17.625 -9.207031 17.90625 -10.5625 C 18.1875 -11.914062 18.375 -13.851562 18.46875 -16.375 L 18.75 -71.90625 C 18.75 -74.695312 18.441406 -76.816406 17.828125 -78.265625 C 17.222656 -79.710938 16.269531 -80.757812 14.96875 -81.40625 C 13.664062 -82.0625 11.800781 -82.625 9.375 -83.09375 C 7.789062 -83.375 6.8125 -83.65625 6.4375 -83.9375 C 6.0625 -84.21875 5.875 -85.007812 5.875 -86.3125 C 5.875 -87.425781 6.175781 -88.171875 6.78125 -88.546875 C 7.382812 -88.921875 8.34375 -89.109375 9.65625 -89.109375 C 15.4375 -89.109375 20.003906 -88.710938 23.359375 -87.921875 C 26.710938 -87.128906 29.671875 -85.707031 32.234375 -83.65625 C 34.804688 -81.601562 37.628906 -78.476562 40.703125 -74.28125 L 79.03125 -23.921875 L 79.453125 -23.921875 L 79.171875 -71.90625 C 79.078125 -74.425781 78.890625 -76.359375 78.609375 -77.703125 C 78.335938 -79.054688 77.570312 -80.222656 76.3125 -81.203125 C 75.050781 -82.179688 73.066406 -82.671875 70.359375 -82.671875 L 69.53125 -82.671875 C 68.59375 -82.671875 67.914062 -82.832031 67.5 -83.15625 C 67.082031 -83.488281 66.828125 -84.304688 66.734375 -85.609375 C 66.734375 -86.453125 66.960938 -87.175781 67.421875 -87.78125 C 67.890625 -88.382812 68.5 -88.6875 69.25 -88.6875 C 75.21875 -88.40625 79.691406 -88.265625 82.671875 -88.265625 C 84.441406 -88.265625 87.847656 -88.359375 92.890625 -88.546875 L 95.828125 -88.6875 C 96.660156 -88.6875 97.285156 -88.382812 97.703125 -87.78125 C 98.128906 -87.175781 98.34375 -86.453125 98.34375 -85.609375 C 98.25 -84.210938 97.96875 -83.375 97.5 -83.09375 C 97.03125 -82.8125 96.144531 -82.671875 94.84375 -82.671875 C 92.132812 -82.671875 90.148438 -82.179688 88.890625 -81.203125 C 87.640625 -80.222656 86.875 -79.054688 86.59375 -77.703125 C 86.3125 -76.359375 86.125 -74.425781 86.03125 -71.90625 L 85.75 -1.40625 C 85.65625 -0.1875 84.488281 0.421875 82.25 0.421875 C 80.476562 0.421875 79.128906 -0.1875 78.203125 -1.40625 L 25.453125 -71.90625 L 25.046875 -71.90625 L 25.3125 -16.375 C 25.40625 -13.851562 25.59375 -11.914062 25.875 -10.5625 C 26.15625 -9.207031 26.925781 -8.039062 28.1875 -7.0625 C 29.445312 -6.082031 31.429688 -5.59375 34.140625 -5.59375 L 34.96875 -5.59375 C 35.90625 -5.59375 36.582031 -5.425781 37 -5.09375 C 37.414062 -4.769531 37.671875 -3.957031 37.765625 -2.65625 C 37.765625 -1.820312 37.554688 -1.097656 37.140625 -0.484375 C 36.722656 0.117188 36.09375 0.421875 35.25 0.421875 C 29.28125 0.140625 24.757812 0 21.6875 0 C 19.820312 0 16.554688 0.09375 11.890625 0.28125 Z M 8.671875 0.421875 "/></g></g></g><g fill="#004aad" fill-opacity="1"><g transform="translate(691.577256, 126.933671)"><g><path d="M 25.046875 0.421875 C 24.203125 0.421875 23.566406 0.117188 23.140625 -0.484375 C 22.722656 -1.097656 22.515625 -1.820312 22.515625 -2.65625 C 22.609375 -4.050781 22.890625 -4.890625 23.359375 -5.171875 C 23.828125 -5.453125 24.710938 -5.59375 26.015625 -5.59375 C 28.722656 -5.59375 30.726562 -6.082031 32.03125 -7.0625 C 33.34375 -8.039062 34.160156 -9.253906 34.484375 -10.703125 C 34.804688 -12.148438 35.015625 -14.039062 35.109375 -16.375 L 35.109375 -83.09375 L 25.453125 -83.09375 C 22.285156 -83 19.835938 -82.320312 18.109375 -81.0625 C 16.390625 -79.800781 15.085938 -77.9375 14.203125 -75.46875 C 13.316406 -73 12.546875 -69.476562 11.890625 -64.90625 C 11.796875 -64.164062 11.234375 -63.5625 10.203125 -63.09375 C 9.179688 -62.625 8.113281 -62.390625 7 -62.390625 C 6.15625 -62.390625 5.382812 -62.644531 4.6875 -63.15625 C 3.988281 -63.675781 3.640625 -64.351562 3.640625 -65.1875 L 4.0625 -84.90625 C 4.0625 -87.144531 5.316406 -88.265625 7.828125 -88.265625 L 76.234375 -88.265625 C 78.660156 -88.265625 79.875 -87.144531 79.875 -84.90625 L 80.4375 -65.1875 C 80.4375 -64.351562 80.0625 -63.675781 79.3125 -63.15625 C 78.570312 -62.644531 77.78125 -62.390625 76.9375 -62.390625 C 75.820312 -62.390625 74.773438 -62.625 73.796875 -63.09375 C 72.816406 -63.5625 72.28125 -64.164062 72.1875 -64.90625 C 71.4375 -69.570312 70.640625 -73.113281 69.796875 -75.53125 C 68.960938 -77.957031 67.660156 -79.800781 65.890625 -81.0625 C 64.117188 -82.320312 61.644531 -83 58.46875 -83.09375 L 48.96875 -83.09375 L 48.96875 -16.375 C 49.0625 -14.039062 49.269531 -12.148438 49.59375 -10.703125 C 49.914062 -9.253906 50.726562 -8.039062 52.03125 -7.0625 C 53.34375 -6.082031 55.347656 -5.59375 58.046875 -5.59375 L 58.890625 -5.59375 C 59.734375 -5.59375 60.363281 -5.425781 60.78125 -5.09375 C 61.195312 -4.769531 61.453125 -3.957031 61.546875 -2.65625 C 61.546875 -1.820312 61.335938 -1.097656 60.921875 -0.484375 C 60.503906 0.117188 59.875 0.421875 59.03125 0.421875 C 53.0625 0.140625 47.5625 0 42.53125 0 C 36.9375 0 31.109375 0.140625 25.046875 0.421875 Z M 25.046875 0.421875 "/></g></g></g><g fill="#004aad" fill-opacity="1"><g transform="translate(822.659775, 126.933671)"><g><path d="M 8.390625 0.421875 C 7.554688 0.421875 6.925781 0.117188 6.5 -0.484375 C 6.082031 -1.097656 5.875 -1.820312 5.875 -2.65625 C 5.96875 -4.050781 6.269531 -4.890625 6.78125 -5.171875 C 7.289062 -5.453125 8.15625 -5.59375 9.375 -5.59375 C 12.070312 -5.59375 14.070312 -6.082031 15.375 -7.0625 C 16.6875 -8.039062 17.53125 -9.226562 17.90625 -10.625 C 18.28125 -12.03125 18.515625 -13.945312 18.609375 -16.375 L 18.609375 -71.90625 C 18.515625 -74.332031 18.28125 -76.242188 17.90625 -77.640625 C 17.53125 -79.035156 16.6875 -80.222656 15.375 -81.203125 C 14.070312 -82.179688 12.070312 -82.671875 9.375 -82.671875 L 8.53125 -82.671875 C 7.695312 -82.671875 7.066406 -82.832031 6.640625 -83.15625 C 6.222656 -83.488281 5.96875 -84.304688 5.875 -85.609375 C 5.875 -86.453125 6.082031 -87.175781 6.5 -87.78125 C 6.925781 -88.382812 7.554688 -88.6875 8.390625 -88.6875 C 14.453125 -88.40625 20.003906 -88.265625 25.046875 -88.265625 C 30.640625 -88.265625 36.46875 -88.40625 42.53125 -88.6875 C 43.363281 -88.6875 43.988281 -88.382812 44.40625 -87.78125 C 44.832031 -87.175781 45.046875 -86.453125 45.046875 -85.609375 C 44.953125 -84.210938 44.644531 -83.375 44.125 -83.09375 C 43.613281 -82.8125 42.707031 -82.671875 41.40625 -82.671875 C 38.695312 -82.671875 36.691406 -82.179688 35.390625 -81.203125 C 34.085938 -80.222656 33.269531 -79.007812 32.9375 -77.5625 C 32.613281 -76.125 32.40625 -74.238281 32.3125 -71.90625 L 32.3125 -16.375 C 32.40625 -14.039062 32.613281 -12.148438 32.9375 -10.703125 C 33.269531 -9.253906 34.085938 -8.039062 35.390625 -7.0625 C 36.691406 -6.082031 38.695312 -5.59375 41.40625 -5.59375 L 42.25 -5.59375 C 43.175781 -5.59375 43.847656 -5.425781 44.265625 -5.09375 C 44.691406 -4.769531 44.953125 -3.957031 45.046875 -2.65625 C 45.046875 -1.820312 44.832031 -1.097656 44.40625 -0.484375 C 43.988281 0.117188 43.363281 0.421875 42.53125 0.421875 C 36.5625 0.140625 30.78125 0 25.1875 0 C 20.050781 0 14.453125 0.140625 8.390625 0.421875 Z M 8.390625 0.421875 "/></g></g></g><g fill="#004aad" fill-opacity="1"><g transform="translate(920.729365, 126.933671)"><g><path d="M 37.078125 2.796875 C 27.273438 2.796875 19.785156 1.09375 14.609375 -2.3125 C 9.441406 -5.71875 6.859375 -10.726562 6.859375 -17.34375 C 6.859375 -20.695312 8 -23.46875 10.28125 -25.65625 C 12.5625 -27.851562 15.523438 -28.953125 19.171875 -28.953125 C 21.304688 -28.859375 22.929688 -28.320312 24.046875 -27.34375 C 25.171875 -26.363281 25.734375 -25.457031 25.734375 -24.625 C 25.734375 -24.53125 25.265625 -24.203125 24.328125 -23.640625 C 23.398438 -23.078125 22.5625 -22.234375 21.8125 -21.109375 C 21.070312 -19.992188 20.703125 -18.457031 20.703125 -16.5 C 20.703125 -12.125 22.03125 -8.742188 24.6875 -6.359375 C 27.34375 -3.984375 31.472656 -2.796875 37.078125 -2.796875 C 40.898438 -2.796875 44.253906 -3.539062 47.140625 -5.03125 C 50.035156 -6.53125 52.25 -8.515625 53.78125 -10.984375 C 55.320312 -13.453125 56.09375 -16.039062 56.09375 -18.75 C 56.09375 -22.101562 55.132812 -24.992188 53.21875 -27.421875 C 51.3125 -29.847656 48.957031 -31.875 46.15625 -33.5 C 43.363281 -35.132812 39.539062 -37.023438 34.6875 -39.171875 C 29.09375 -41.691406 24.570312 -43.976562 21.125 -46.03125 C 17.675781 -48.082031 14.738281 -50.804688 12.3125 -54.203125 C 9.882812 -57.609375 8.671875 -61.832031 8.671875 -66.875 C 8.671875 -74.976562 11.441406 -81.035156 16.984375 -85.046875 C 22.535156 -89.054688 29.835938 -91.0625 38.890625 -91.0625 C 45.972656 -91.0625 52.148438 -89.566406 57.421875 -86.578125 C 62.691406 -83.597656 65.328125 -79.21875 65.328125 -73.4375 C 65.328125 -70.082031 64.179688 -67.304688 61.890625 -65.109375 C 59.609375 -62.921875 56.648438 -61.828125 53.015625 -61.828125 C 50.867188 -61.921875 49.234375 -62.457031 48.109375 -63.4375 C 46.992188 -64.414062 46.4375 -65.328125 46.4375 -66.171875 C 46.4375 -66.265625 47.066406 -66.585938 48.328125 -67.140625 C 49.585938 -67.703125 50.707031 -68.539062 51.6875 -69.65625 C 52.664062 -70.78125 53.15625 -72.320312 53.15625 -74.28125 C 53.15625 -77.726562 51.828125 -80.429688 49.171875 -82.390625 C 46.515625 -84.347656 43.132812 -85.328125 39.03125 -85.328125 C 33.34375 -85.328125 29.03125 -84 26.09375 -81.34375 C 23.15625 -78.6875 21.6875 -75.398438 21.6875 -71.484375 C 21.6875 -68.222656 22.570312 -65.492188 24.34375 -63.296875 C 26.113281 -61.109375 28.957031 -58.941406 32.875 -56.796875 C 36.039062 -55.117188 39.488281 -53.441406 43.21875 -51.765625 C 49.1875 -49.054688 53.921875 -46.582031 57.421875 -44.34375 C 60.921875 -42.101562 63.859375 -39.164062 66.234375 -35.53125 C 68.617188 -31.894531 69.8125 -27.375 69.8125 -21.96875 C 69.8125 -17.300781 68.34375 -13.078125 65.40625 -9.296875 C 62.46875 -5.523438 58.503906 -2.566406 53.515625 -0.421875 C 48.523438 1.722656 43.046875 2.796875 37.078125 2.796875 Z M 37.078125 2.796875 "/></g></g></g></g></g><g transform="matrix(1, 0, 0, 1, 419, 822)"><g clip-path="url(#967cd4f644)"><g fill="#004aad" fill-opacity="1"><g transform="translate(3.431554, 69.44028)"><g><path d="M 10.421875 -24.171875 L 21.796875 -24.171875 C 24.617188 -24.171875 26.941406 -25.128906 28.765625 -27.046875 C 30.640625 -29.003906 31.578125 -31.425781 31.578125 -34.3125 C 31.578125 -37.132812 30.6875 -39.484375 28.90625 -41.359375 C 27.132812 -43.179688 24.765625 -44.09375 21.796875 -44.09375 L 10.421875 -44.09375 Z M 36.609375 -34.15625 C 36.609375 -29.894531 35.097656 -26.347656 32.078125 -23.515625 C 29.390625 -21.023438 26.15625 -19.660156 22.375 -19.421875 L 37.40625 0 L 30.640625 0 L 16.328125 -19.34375 L 10.421875 -19.34375 L 10.421875 0 L 5.390625 0 L 5.390625 -48.90625 L 21.078125 -48.90625 C 25.441406 -48.90625 29.109375 -47.539062 32.078125 -44.8125 C 35.097656 -41.925781 36.609375 -38.375 36.609375 -34.15625 Z M 36.609375 -34.15625 "/></g></g></g><g fill="#004aad" fill-opacity="1"><g transform="translate(75.07521, 69.44028)"><g><path d="M 34.453125 0 L 5.390625 0 L 5.390625 -48.90625 L 34.453125 -48.90625 L 34.453125 -44.234375 L 10.421875 -44.234375 L 10.421875 -26.828125 L 33.734375 -26.828125 L 33.734375 -22.078125 L 10.421875 -22.078125 L 10.421875 -4.671875 L 34.453125 -4.671875 Z M 34.453125 0 "/></g></g></g><g fill="#004aad" fill-opacity="1"><g transform="translate(147.43795, 69.44028)"><g><path d="M 18.984375 -23.09375 C 9.015625 -25.394531 4.03125 -29.660156 4.03125 -35.890625 C 4.03125 -40.492188 5.632812 -43.945312 8.84375 -46.25 C 12.0625 -48.5 15.828125 -49.625 20.140625 -49.625 C 29.679688 -49.625 35.335938 -46.078125 37.109375 -38.984375 L 31.640625 -38.984375 C 30.679688 -43.203125 26.847656 -45.3125 20.140625 -45.3125 C 15.441406 -45.3125 12.15625 -43.921875 10.28125 -41.140625 C 9.5625 -40.085938 9.203125 -38.769531 9.203125 -37.1875 C 9.203125 -34.164062 10.832031 -31.835938 14.09375 -30.203125 C 15.625 -29.390625 18.882812 -28.335938 23.875 -27.046875 C 28.863281 -25.742188 32.484375 -24.304688 34.734375 -22.734375 C 37.847656 -20.523438 39.40625 -17.429688 39.40625 -13.453125 C 39.40625 -8.515625 37.46875 -4.773438 33.59375 -2.234375 C 30.332031 -0.117188 26.300781 0.9375 21.5 0.9375 C 10.664062 0.9375 4.382812 -3.1875 2.65625 -11.4375 L 8.625 -11.4375 C 9.539062 -6.257812 13.832031 -3.671875 21.5 -3.671875 C 26.96875 -3.671875 30.78125 -5.179688 32.9375 -8.203125 C 33.800781 -9.398438 34.234375 -11.03125 34.234375 -13.09375 C 34.234375 -15.101562 33.441406 -16.753906 31.859375 -18.046875 C 29.609375 -19.867188 25.316406 -21.550781 18.984375 -23.09375 Z M 18.984375 -23.09375 "/></g></g></g><g fill="#004aad" fill-opacity="1"><g transform="translate(221.238902, 69.44028)"><g><path d="M 48.46875 -24.59375 C 48.46875 -30.113281 46.503906 -34.835938 42.578125 -38.765625 C 38.648438 -42.691406 33.90625 -44.65625 28.34375 -44.65625 C 22.820312 -44.65625 18.097656 -42.691406 14.171875 -38.765625 C 10.234375 -34.835938 8.265625 -30.113281 8.265625 -24.59375 C 8.265625 -19.03125 10.234375 -14.285156 14.171875 -10.359375 C 18.097656 -6.421875 22.820312 -4.453125 28.34375 -4.453125 C 33.90625 -4.453125 38.648438 -6.421875 42.578125 -10.359375 C 46.503906 -14.285156 48.46875 -19.03125 48.46875 -24.59375 Z M 53.515625 -24.59375 C 53.515625 -21.144531 52.863281 -17.882812 51.5625 -14.8125 C 50.21875 -11.75 48.421875 -9.085938 46.171875 -6.828125 C 43.867188 -4.523438 41.1875 -2.726562 38.125 -1.4375 C 35.050781 -0.09375 31.789062 0.578125 28.34375 0.578125 C 24.882812 0.578125 21.644531 -0.09375 18.625 -1.4375 C 15.5625 -2.726562 12.898438 -4.523438 10.640625 -6.828125 C 8.335938 -9.085938 6.539062 -11.75 5.25 -14.8125 C 3.90625 -17.882812 3.234375 -21.144531 3.234375 -24.59375 C 3.234375 -28.050781 3.90625 -31.3125 5.25 -34.375 C 6.539062 -37.445312 8.335938 -40.109375 10.640625 -42.359375 C 12.898438 -44.617188 15.5625 -46.414062 18.625 -47.75 C 21.644531 -49.050781 24.882812 -49.703125 28.34375 -49.703125 C 31.789062 -49.703125 35.050781 -49.050781 38.125 -47.75 C 41.1875 -46.414062 43.867188 -44.617188 46.171875 -42.359375 C 48.421875 -40.109375 50.21875 -37.445312 51.5625 -34.375 C 52.863281 -31.3125 53.515625 -28.050781 53.515625 -24.59375 Z M 53.515625 -24.59375 "/></g></g></g><g fill="#004aad" fill-opacity="1"><g transform="translate(310.500608, 69.44028)"><g><path d="M 10.421875 -24.171875 L 21.796875 -24.171875 C 24.617188 -24.171875 26.941406 -25.128906 28.765625 -27.046875 C 30.640625 -29.003906 31.578125 -31.425781 31.578125 -34.3125 C 31.578125 -37.132812 30.6875 -39.484375 28.90625 -41.359375 C 27.132812 -43.179688 24.765625 -44.09375 21.796875 -44.09375 L 10.421875 -44.09375 Z M 36.609375 -34.15625 C 36.609375 -29.894531 35.097656 -26.347656 32.078125 -23.515625 C 29.390625 -21.023438 26.15625 -19.660156 22.375 -19.421875 L 37.40625 0 L 30.640625 0 L 16.328125 -19.34375 L 10.421875 -19.34375 L 10.421875 0 L 5.390625 0 L 5.390625 -48.90625 L 21.078125 -48.90625 C 25.441406 -48.90625 29.109375 -47.539062 32.078125 -44.8125 C 35.097656 -41.925781 36.609375 -38.375 36.609375 -34.15625 Z M 36.609375 -34.15625 "/></g></g></g><g fill="#004aad" fill-opacity="1"><g transform="translate(382.144264, 69.44028)"><g><path d="M 1.4375 -44.375 L 1.4375 -49.046875 L 30.203125 -49.046875 L 30.203125 -44.375 L 18.34375 -44.375 L 18.34375 -0.140625 L 13.3125 -0.140625 L 13.3125 -44.375 Z M 1.4375 -44.375 "/></g></g></g></g></g></svg>