<svg xmlns="http://www.w3.org/2000/svg" xmlns:xlink="http://www.w3.org/1999/xlink" width="528" zoomAndPan="magnify" viewBox="0 0 396 540.000001" height="720" preserveAspectRatio="xMidYMid meet" version="1.0"><defs><clipPath id="a98b0ec381"><path d="M 197.847656 354 L 394 354 L 394 446 L 197.847656 446 Z M 197.847656 354 " clip-rule="nonzero"/></clipPath><clipPath id="06212e5057"><path d="M 8 27 L 196.71875 27 L 196.71875 74 L 8 74 Z M 8 27 " clip-rule="nonzero"/></clipPath><clipPath id="d508c3ff0a"><path d="M 0.847656 44 L 187 44 L 187 91.097656 L 0.847656 91.097656 Z M 0.847656 44 " clip-rule="nonzero"/></clipPath><clipPath id="f8f73f4431"><path d="M 151 0.304688 L 192 0.304688 L 192 53 L 151 53 Z M 151 0.304688 " clip-rule="nonzero"/></clipPath><clipPath id="1c0907bf20"><rect x="0" width="197" y="0" height="92"/></clipPath><clipPath id="168f5b0152"><path d="M 16.5 0 L 380 0 L 380 539 L 16.5 539 Z M 16.5 0 " clip-rule="nonzero"/></clipPath></defs><path fill="#52b9d0" d="M 2.039062 405.585938 C 32.257812 445.773438 69.054688 421.328125 102.222656 403.25 C 131.632812 387.222656 160.917969 386.164062 189.984375 411.1875 C 164.164062 377.367188 132.355469 373.867188 96.21875 392.304688 C 66.632812 407.402344 34.683594 434.679688 2.039062 405.585938 " fill-opacity="1" fill-rule="evenodd"/><path fill="#004aad" d="M 12.308594 423.320312 C 42.128906 463.507812 78.4375 439.066406 111.164062 420.988281 C 140.1875 404.960938 169.085938 403.902344 197.769531 428.921875 C 172.285156 395.105469 140.902344 391.601562 105.242188 410.042969 C 76.046875 425.140625 44.519531 452.417969 12.308594 423.320312 " fill-opacity="1" fill-rule="evenodd"/><path fill="#004aad" d="M 46.742188 406.242188 C 31.417969 395.765625 22.632812 381.238281 22.554688 361.324219 C 22.5 349.964844 6.28125 353.753906 7.03125 363.167969 C 8.78125 385.019531 23.019531 398.722656 46.742188 406.242188 " fill-opacity="1" fill-rule="evenodd"/><path fill="#004aad" d="M 45.5625 408.847656 C 32.363281 409.132812 21.269531 404.371094 12.976562 392.890625 C 8.246094 386.34375 0.433594 395.25 4.765625 400.382812 C 14.824219 412.296875 28.734375 414.324219 45.5625 408.847656 " fill-opacity="1" fill-rule="evenodd"/><path fill="#004aad" d="M 56.183594 390.835938 C 52.101562 390.835938 48.792969 394.144531 48.792969 398.226562 C 48.792969 402.308594 52.101562 405.617188 56.183594 405.617188 C 60.265625 405.617188 63.574219 402.308594 63.574219 398.226562 C 63.574219 394.144531 60.265625 390.835938 56.183594 390.835938 " fill-opacity="1" fill-rule="evenodd"/><path fill="#004aad" d="M 72.285156 384.675781 C 70.050781 384.675781 68.238281 386.488281 68.238281 388.722656 C 68.238281 390.957031 70.050781 392.769531 72.285156 392.769531 C 74.519531 392.769531 76.332031 390.957031 76.332031 388.722656 C 76.332031 386.488281 74.519531 384.675781 72.285156 384.675781 " fill-opacity="1" fill-rule="evenodd"/><path fill="#004aad" d="M 57.039062 373.007812 C 53.945312 373.007812 51.4375 375.515625 51.4375 378.609375 C 51.4375 381.703125 53.945312 384.210938 57.039062 384.210938 C 60.132812 384.210938 62.640625 381.703125 62.640625 378.609375 C 62.640625 375.515625 60.132812 373.007812 57.039062 373.007812 " fill-opacity="1" fill-rule="evenodd"/><g clip-path="url(#a98b0ec381)"><g transform="matrix(1, 0, 0, 1, 197, 354)"><g clip-path="url(#1c0907bf20)"><g clip-path="url(#06212e5057)"><path fill="#004aad" d="M 196.644531 51.585938 C 166.425781 91.773438 129.628906 67.328125 96.460938 49.25 C 67.050781 33.222656 37.765625 32.164062 8.695312 57.1875 C 34.519531 23.367188 66.328125 19.867188 102.460938 38.304688 C 132.050781 53.402344 164 80.679688 196.644531 51.585938 " fill-opacity="1" fill-rule="evenodd"/></g><g clip-path="url(#d508c3ff0a)"><path fill="#52b9d0" d="M 186.375 69.320312 C 156.554688 109.507812 120.246094 85.066406 87.515625 66.988281 C 58.496094 50.960938 29.597656 49.902344 0.914062 74.921875 C 26.394531 41.105469 57.78125 37.601562 93.4375 56.042969 C 122.636719 71.140625 154.164062 98.417969 186.375 69.320312 " fill-opacity="1" fill-rule="evenodd"/></g><g clip-path="url(#f8f73f4431)"><path fill="#52b9d0" d="M 151.941406 52.242188 C 167.261719 41.765625 176.046875 27.238281 176.128906 7.324219 C 176.179688 -4.035156 192.402344 -0.246094 191.648438 9.167969 C 189.902344 31.019531 175.660156 44.722656 151.941406 52.242188 " fill-opacity="1" fill-rule="evenodd"/></g><path fill="#52b9d0" d="M 153.117188 54.847656 C 166.316406 55.132812 177.410156 50.371094 185.703125 38.890625 C 190.4375 32.34375 198.246094 41.25 193.917969 46.382812 C 183.855469 58.296875 169.949219 60.324219 153.117188 54.847656 " fill-opacity="1" fill-rule="evenodd"/><path fill="#52b9d0" d="M 142.496094 36.835938 C 146.578125 36.835938 149.886719 40.144531 149.886719 44.226562 C 149.886719 48.308594 146.578125 51.617188 142.496094 51.617188 C 138.417969 51.617188 135.105469 48.308594 135.105469 44.226562 C 135.109375 40.144531 138.417969 36.835938 142.496094 36.835938 " fill-opacity="1" fill-rule="evenodd"/><path fill="#52b9d0" d="M 126.394531 30.675781 C 128.628906 30.675781 130.441406 32.488281 130.441406 34.722656 C 130.441406 36.957031 128.628906 38.769531 126.394531 38.769531 C 124.160156 38.769531 122.347656 36.957031 122.347656 34.722656 C 122.347656 32.488281 124.160156 30.675781 126.394531 30.675781 " fill-opacity="1" fill-rule="evenodd"/><path fill="#52b9d0" d="M 141.644531 19.007812 C 144.738281 19.007812 147.246094 21.515625 147.246094 24.609375 C 147.246094 27.703125 144.738281 30.210938 141.644531 30.210938 C 138.550781 30.210938 136.042969 27.703125 136.042969 24.609375 C 136.042969 21.515625 138.550781 19.007812 141.644531 19.007812 " fill-opacity="1" fill-rule="evenodd"/></g></g></g><g clip-path="url(#168f5b0152)"><path fill="#52b9d0" d="M 193.984375 537.71875 C 189.347656 535.800781 187.25 529.089844 189.75 524.183594 L 190.929688 521.871094 L 188.148438 520.808594 C 183.929688 519.195312 178.765625 514.105469 176.328125 509.152344 C 174.414062 505.269531 174.242188 504.417969 174.242188 498.855469 C 174.242188 493.546875 174.457031 492.355469 175.96875 489.289062 C 176.917969 487.363281 178.566406 484.835938 179.628906 483.675781 C 180.695312 482.515625 181.566406 481.441406 181.566406 481.289062 C 181.566406 480.632812 176.449219 481.085938 174.480469 481.914062 C 169.871094 483.859375 167.554688 487.605469 167.554688 493.121094 C 167.554688 495.800781 167.265625 496.621094 165.871094 497.917969 C 161.511719 501.957031 155.398438 497.617188 155.21875 490.363281 C 155.035156 482.90625 159.121094 476.304688 165.785156 473.292969 L 169.148438 471.773438 L 228.375 471.773438 L 231.558594 473.46875 C 238 476.898438 241.625 482.554688 241.699219 489.289062 C 241.746094 493.964844 240.515625 496.707031 237.585938 498.4375 C 235.207031 499.839844 233.027344 499.746094 231.007812 498.160156 C 229.519531 496.988281 229.332031 496.394531 229.328125 492.90625 C 229.328125 488.210938 227.964844 485.117188 225.046875 483.164062 C 223.082031 481.851562 218.683594 480.617188 218.089844 481.210938 C 217.933594 481.367188 218.796875 483.320312 220.011719 485.550781 C 227.207031 498.808594 222.808594 513.171875 209.394531 520.195312 L 205.933594 522.007812 L 207.121094 523.957031 C 209.824219 528.390625 207.917969 534.84375 203.207031 537.210938 C 200.902344 538.371094 196.1875 538.628906 193.984375 537.71875 Z M 203.285156 502.492188 C 209.664062 498.230469 208.664062 489.152344 201.460938 485.964844 C 190.886719 481.285156 183.28125 496.628906 193.183594 502.667969 C 196.070312 504.425781 200.503906 504.347656 203.285156 502.492188 Z M 186.125 484.683594 C 186.898438 483.722656 187.371094 482.78125 187.175781 482.585938 C 186.535156 481.945312 182.6875 485.679688 181.796875 487.804688 C 180.269531 491.460938 180.824219 492.242188 182.824219 489.253906 C 183.863281 487.695312 185.347656 485.640625 186.125 484.683594 Z M 197.578125 465.097656 C 169.117188 464.773438 168.714844 464.753906 170.035156 463.558594 C 171.667969 462.082031 171.828125 458.613281 170.324219 457.367188 C 169.746094 456.886719 168.382812 456.207031 167.300781 455.855469 C 165.289062 455.207031 164.261719 452.839844 165.46875 451.636719 C 166.160156 450.945312 200.539062 450.5625 218.503906 451.042969 L 231.558594 451.394531 L 231.75 453.011719 C 231.910156 454.40625 231.472656 454.84375 228.5625 456.195312 C 225.769531 457.496094 225.15625 458.078125 224.980469 459.609375 C 224.851562 460.75 225.277344 462.136719 226.09375 463.246094 C 227.484375 465.125 227.738281 465.824219 226.941406 465.574219 C 226.679688 465.492188 213.464844 465.277344 197.578125 465.097656 Z M 195.894531 456.207031 C 197.78125 455.820312 196.542969 455.691406 191.117188 455.714844 C 185.171875 455.742188 184.511719 455.828125 187.617188 456.171875 C 193.148438 456.785156 193.113281 456.785156 195.894531 456.207031 Z M 167.554688 444.050781 C 167.554688 443.691406 168.605469 442.472656 169.890625 441.347656 C 173.800781 437.910156 174.625 435.132812 175.03125 423.953125 L 175.390625 414.140625 L 221.535156 414.140625 L 221.808594 424.171875 C 222.121094 435.671875 223.042969 438.789062 227.027344 441.828125 C 228.292969 442.796875 229.332031 443.839844 229.332031 444.148438 C 229.332031 444.464844 215.835938 444.707031 198.441406 444.707031 C 177.664062 444.707031 167.554688 444.496094 167.554688 444.050781 Z M 175.632812 403.179688 C 175.207031 398.101562 174.195312 396.214844 170.679688 393.960938 C 166.929688 391.550781 165.71875 390.308594 165.519531 388.664062 L 165.328125 387.074219 L 198.285156 386.910156 L 231.242188 386.742188 L 231.242188 388.066406 C 231.242188 390.285156 230.101562 391.699219 226.894531 393.441406 C 222.976562 395.574219 221.8125 397.605469 221.289062 403.230469 L 220.867188 407.769531 L 176.019531 407.769531 Z M 204.125 392.566406 C 204.5625 391.859375 195.316406 391.3125 189.703125 391.710938 C 187.34375 391.882812 185.570312 392.265625 185.757812 392.570312 C 186.203125 393.292969 203.675781 393.292969 204.125 392.570312 Z M 165.039062 378.828125 C 163.101562 376.765625 162.960938 372.828125 164.738281 370.386719 C 165.800781 368.921875 170.078125 365.765625 176.632812 361.597656 C 177.535156 361.027344 177.503906 360.621094 176.328125 357.609375 L 175.019531 354.257812 L 173.039062 355.769531 C 166.371094 360.855469 155.359375 366.160156 147.175781 368.238281 C 140.070312 370.039062 128.644531 370.628906 120.941406 369.585938 C 113.203125 368.542969 103.628906 365.265625 97.570312 361.589844 C 92.121094 358.285156 89.523438 356.308594 90 355.832031 C 90.175781 355.65625 92.578125 356.226562 95.34375 357.097656 C 108.660156 361.300781 121.332031 362.980469 131.664062 361.90625 C 137.507812 361.300781 142.546875 360.390625 143.097656 359.839844 C 143.253906 359.683594 139.863281 359.398438 135.566406 359.203125 C 94.941406 357.375 61.636719 330.582031 51.277344 291.398438 C 50.019531 286.640625 49.550781 283.003906 49.285156 275.941406 C 48.601562 257.683594 51.90625 244.011719 63.753906 216.0625 C 68.382812 205.152344 71.859375 195.898438 73.328125 190.601562 C 79.71875 167.5625 77.441406 143 67.074219 123.109375 C 61.179688 111.804688 51.351562 100.046875 41.859375 92.953125 C 35.796875 88.421875 25.515625 82.191406 20.585938 80.0625 C 18.386719 79.113281 16.683594 78.242188 16.796875 78.128906 C 16.910156 78.015625 20.472656 78.625 24.714844 79.484375 C 52.972656 85.21875 81.785156 102.269531 97.496094 122.554688 C 110.207031 138.964844 115.976562 155.746094 115.964844 176.257812 C 115.957031 192.554688 111.636719 206.609375 100.398438 226.902344 C 92.96875 240.316406 91.765625 242.707031 89.578125 248.371094 C 85.703125 258.40625 84.421875 267.378906 85.441406 277.328125 C 86.773438 290.296875 91.613281 300.851562 100.671875 310.535156 C 106.15625 316.398438 111.339844 320.171875 118.835938 323.769531 C 126.691406 327.535156 133.140625 329.339844 141.171875 330.015625 C 157.917969 331.429688 172.0625 326.710938 178.015625 317.726562 C 179.910156 314.867188 180.25 309.777344 178.78125 306.332031 C 176.667969 301.375 170.746094 296.035156 163.097656 292.183594 C 157.9375 289.585938 150.976562 287.40625 147.847656 287.40625 C 145.628906 287.40625 145.410156 287.230469 144.613281 284.808594 C 142.210938 277.527344 130.726562 273.316406 115.96875 274.304688 L 109.917969 274.710938 L 112.785156 273.027344 C 123.601562 266.679688 140.226562 263.054688 158.957031 262.960938 C 170.828125 262.898438 174.832031 263.421875 181.460938 265.890625 C 191.105469 269.484375 196.457031 280.035156 197.898438 298.285156 L 198.371094 304.28125 L 199.121094 296.957031 C 200.433594 284.136719 203.027344 276.375 207.710938 271.25 C 213.425781 264.996094 220.960938 262.980469 238.566406 262.988281 C 250.617188 262.992188 259.976562 264.226562 269.601562 267.078125 C 274.675781 268.578125 282.0625 271.65625 284.925781 273.460938 L 286.964844 274.746094 L 280.914062 274.332031 C 273.976562 273.855469 265.78125 274.789062 260.898438 276.617188 C 257.15625 278.015625 253.464844 281.511719 252.027344 285.015625 C 251.171875 287.105469 250.78125 287.40625 248.921875 287.40625 C 239.816406 287.40625 223.9375 296.335938 219.328125 304.050781 C 216.476562 308.8125 216.109375 311.835938 217.875 315.941406 C 220.546875 322.15625 227.957031 327.121094 237.667969 329.203125 C 244.171875 330.597656 256.855469 330.574219 263.367188 329.160156 C 281.554688 325.207031 297.203125 313.371094 305.546875 297.253906 C 310.503906 287.679688 312.378906 277.628906 311.402344 265.882812 C 310.484375 254.898438 307.957031 247.816406 299.425781 232.316406 C 288.707031 212.851562 285.714844 206.078125 282.976562 195.097656 C 281.476562 189.085938 281.296875 187.128906 281.265625 176.59375 C 281.234375 164.40625 281.875 158.894531 284.238281 151.117188 C 286.878906 142.421875 291.898438 132.75 298.121094 124.371094 C 301.496094 119.820312 311.675781 109.550781 317.308594 105.015625 C 331.199219 93.828125 353.867188 83.164062 370.960938 79.777344 C 374.5 79.074219 378.117188 78.347656 378.992188 78.164062 C 379.867188 77.976562 377.511719 79.378906 373.753906 81.28125 C 362.617188 86.910156 354.667969 92.59375 346.488281 100.777344 C 338.566406 108.707031 333.476562 115.71875 328.972656 124.921875 C 319.542969 144.1875 317.375 167.382812 323.015625 188.671875 C 325.285156 197.242188 327 201.875 334.105469 218.625 C 344.777344 243.789062 347.449219 254.507812 347.449219 272.121094 C 347.445312 280.585938 347.164062 284.566406 346.269531 288.679688 C 340.433594 315.480469 322.398438 338.34375 297.765625 350.164062 C 290.171875 353.808594 278.09375 357.289062 268.816406 358.511719 C 264.789062 359.039062 260.058594 359.675781 258.308594 359.921875 L 255.121094 360.375 L 260.085938 361.144531 C 266.871094 362.203125 279.613281 362.117188 286.183594 360.96875 C 289.171875 360.449219 294.976562 359.003906 299.085938 357.757812 C 303.191406 356.515625 306.867188 355.601562 307.25 355.730469 C 308.398438 356.113281 302.042969 360.402344 295.667969 363.542969 C 292.398438 365.15625 286.953125 367.207031 283.570312 368.101562 C 278.246094 369.507812 275.988281 369.738281 266.90625 369.804688 C 255.171875 369.886719 250.160156 369.050781 241.523438 365.570312 C 236.652344 363.605469 227.570312 358.566406 223.851562 355.757812 L 221.871094 354.265625 L 219.378906 361.03125 L 223.417969 363.421875 C 228.386719 366.359375 231.640625 369.164062 232.890625 371.582031 C 234.160156 374.035156 233.476562 377.492188 231.398438 379.125 C 229.847656 380.34375 228.738281 380.386719 198.148438 380.386719 L 166.503906 380.386719 Z M 201.0625 361.175781 C 207.550781 356.300781 209.773438 352.675781 209.851562 346.855469 C 209.902344 343.175781 209.601562 342.335938 204.929688 333.160156 C 201.457031 326.332031 199.738281 322.171875 199.234375 319.347656 L 198.515625 315.308594 L 197.023438 320.933594 C 196.152344 324.210938 194.171875 329.078125 192.265625 332.613281 C 187.269531 341.890625 187.273438 341.882812 186.875 345.230469 C 186.15625 351.308594 189.605469 357.550781 195.761719 361.300781 C 198.34375 362.875 198.8125 362.863281 201.0625 361.175781 Z M 141.074219 334.855469 C 129.6875 333.070312 115.128906 327.519531 107.539062 322.066406 C 103.242188 318.980469 104.289062 320.429688 108.945312 324.007812 C 118.554688 331.40625 130.367188 335.683594 141.125 335.667969 L 146.21875 335.660156 Z M 268.984375 333.949219 C 271.355469 333.265625 274.84375 331.996094 276.734375 331.132812 C 280.085938 329.597656 287.921875 324.597656 287.921875 323.992188 C 287.921875 323.828125 285.699219 324.808594 282.984375 326.171875 C 277.21875 329.070312 268.929688 332.101562 260.855469 334.261719 L 255.125 335.796875 L 259.898438 335.496094 C 262.527344 335.328125 266.613281 334.632812 268.984375 333.949219 Z M 294.632812 137.054688 C 295.542969 135.261719 296 133.972656 295.644531 134.191406 C 294.785156 134.722656 291.355469 140.847656 290.808594 142.839844 C 290.433594 144.195312 290.5625 144.128906 291.675781 142.375 C 292.394531 141.242188 293.726562 138.851562 294.632812 137.054688 Z M 133.539062 314.410156 C 132.839844 311.539062 130.195312 307.929688 127.914062 306.730469 C 126.773438 306.128906 124.121094 305.160156 122.019531 304.574219 L 118.199219 303.507812 L 120.429688 303.019531 C 126.054688 301.796875 129.378906 300.0625 130.984375 297.519531 C 131.855469 296.140625 132.738281 294.152344 132.949219 293.105469 C 133.523438 290.230469 134.09375 290.363281 135.046875 293.597656 C 136.285156 297.785156 139.757812 301.042969 144.066406 302.050781 C 147.996094 302.972656 150.109375 303.914062 148.3125 303.945312 C 146.34375 303.980469 140.1875 306.578125 138.285156 308.179688 C 137.257812 309.042969 135.871094 311.214844 135.203125 313.003906 C 134.011719 316.203125 133.980469 316.226562 133.539062 314.410156 Z M 261.171875 314.285156 C 261.171875 312.761719 257.886719 308.164062 255.835938 306.820312 C 254.984375 306.265625 252.480469 305.296875 250.265625 304.671875 L 246.238281 303.539062 L 250.980469 302.097656 C 256.75 300.34375 259.269531 297.988281 260.65625 293.035156 L 261.613281 289.632812 L 262.671875 293.253906 C 264.285156 298.757812 267.59375 301.410156 274.867188 303.027344 C 276.707031 303.433594 276.652344 303.488281 273.273438 304.554688 C 271.347656 305.160156 268.847656 306.136719 267.71875 306.726562 C 265.492188 307.890625 262.445312 311.875 262.445312 313.625 C 262.445312 314.226562 262.160156 314.890625 261.808594 315.109375 C 261.460938 315.324219 261.171875 314.953125 261.171875 314.285156 Z M 135.535156 248.738281 C 143.046875 241.582031 146.351562 237.585938 150.695312 230.40625 C 157.640625 218.925781 159.316406 211.449219 166.25 160.988281 C 167.644531 150.832031 169.242188 138.9375 169.796875 134.558594 C 175.574219 89.015625 186.488281 36.382812 196.660156 5.027344 L 198.289062 0 L 199.152344 2.050781 C 201.636719 7.964844 209.898438 38.125 213.71875 55.246094 C 219.800781 82.496094 223.566406 105.648438 230.605469 159.078125 C 236.089844 200.710938 237.8125 210.992188 240.679688 219.261719 C 244.769531 231.0625 252.359375 241.257812 264.996094 251.933594 L 267.859375 254.355469 L 265.632812 254.027344 C 259.421875 253.121094 241.988281 252.941406 227.546875 253.636719 C 209.671875 254.5 208.394531 254.335938 206.636719 250.9375 C 205.914062 249.542969 205.503906 245.628906 205.089844 236.21875 C 204.019531 211.851562 202.609375 173.003906 201.949219 149.84375 C 200.027344 82.210938 199.265625 57.816406 198.875 51.769531 C 198.472656 45.574219 198.382812 46.421875 197.632812 63.230469 C 197.183594 73.214844 196.546875 92.84375 196.214844 106.855469 C 195.269531 146.777344 194.257812 178.132812 192.707031 215.441406 C 191.503906 244.421875 191.160156 249.140625 190.101562 251.210938 C 188.578125 254.179688 186.457031 254.433594 169.351562 253.65625 C 155.421875 253.023438 137.835938 253.195312 131.890625 254.023438 C 129.710938 254.324219 129.792969 254.207031 135.535156 248.738281 Z M 258.792969 131.949219 C 257.390625 126.039062 253.582031 122.695312 246.84375 121.453125 L 244.296875 120.984375 L 248.4375 119.816406 C 250.710938 119.175781 253.292969 118.117188 254.167969 117.46875 C 256.355469 115.847656 258.503906 111.875 259.015625 108.5 L 259.441406 105.683594 L 260.855469 109.589844 C 261.632812 111.738281 262.753906 114.238281 263.347656 115.140625 C 264.714844 117.226562 267.851562 119.15625 270.726562 119.671875 C 274.734375 120.394531 274.746094 120.921875 270.789062 122.023438 C 266.007812 123.351562 262.96875 125.949219 261.539062 129.925781 C 260.9375 131.597656 260.25 133.480469 260.011719 134.105469 C 259.699219 134.917969 259.351562 134.308594 258.792969 131.949219 Z M 135.863281 131.832031 C 134.246094 125.96875 131.738281 123.570312 125.398438 121.835938 L 121.542969 120.78125 L 125.769531 119.636719 C 132.265625 117.878906 134.484375 115.535156 136.03125 108.777344 L 136.757812 105.601562 L 137.558594 108.777344 C 139.25 115.496094 142.039062 118.285156 148.769531 119.980469 L 151.953125 120.78125 L 149.085938 121.519531 C 142.996094 123.082031 140.167969 125.484375 138.355469 130.632812 C 137.714844 132.445312 137.0625 134.058594 136.898438 134.222656 C 136.734375 134.386719 136.269531 133.308594 135.863281 131.832031 Z M 135.863281 131.832031 " fill-opacity="1" fill-rule="nonzero"/></g></svg>